<?xml version="1.0" encoding="utf-8"?>
<svg viewBox="4.584 6.92 93.042 50.624" xmlns="http://www.w3.org/2000/svg" xmlns:xlink="http://www.w3.org/1999/xlink" xmlns:bx="https://boxy-svg.com">
  <defs>
    <linearGradient id="gradient-2-0" gradientUnits="userSpaceOnUse" x1="25.276" y1="14.165" x2="25.276" y2="51.311" gradientTransform="matrix(1, 0, 0, 1, -7.276364, 0.338069)" xlink:href="#gradient-2"/>
    <linearGradient id="gradient-2" bx:pinned="true">
      <stop offset="0" style="stop-color: rgb(251, 0, 0);"/>
      <stop offset="0.237" style="stop-color: rgb(255, 68, 68);"/>
      <stop offset="0.561" style="stop-color: rgb(192, 180, 231);"/>
      <stop offset="0.736" style="stop-color: rgb(94, 204, 131);"/>
      <stop offset="1" style="stop-color: rgb(112, 94, 203);"/>
    </linearGradient>
  </defs>
  <path d="M 20.664 44.324 C 18.751 44.324 17.054 44.141 15.574 43.774 C 14.087 43.407 12.611 42.721 11.144 41.714 L 11.144 35.624 L 15.504 35.624 L 15.994 38.744 C 16.334 39.131 16.941 39.457 17.814 39.724 C 18.681 39.984 19.631 40.114 20.664 40.114 C 21.384 40.114 21.984 40.027 22.464 39.854 C 22.951 39.674 23.317 39.414 23.564 39.074 C 23.811 38.727 23.934 38.311 23.934 37.824 C 23.934 37.364 23.817 36.951 23.584 36.584 C 23.357 36.224 22.981 35.877 22.454 35.544 C 21.927 35.217 21.217 34.884 20.324 34.544 C 18.317 33.897 16.667 33.241 15.374 32.574 C 14.087 31.907 13.131 31.117 12.504 30.204 C 11.871 29.291 11.554 28.157 11.554 26.804 C 11.554 25.504 11.927 24.371 12.674 23.404 C 13.414 22.431 14.434 21.664 15.734 21.104 C 17.034 20.544 18.521 20.247 20.194 20.214 C 22.107 20.174 23.801 20.364 25.274 20.784 C 26.741 21.211 28.041 21.854 29.174 22.714 L 29.174 28.374 L 24.984 28.374 L 24.324 25.224 C 23.957 25.044 23.434 24.877 22.754 24.724 C 22.081 24.577 21.361 24.504 20.594 24.504 C 19.941 24.504 19.361 24.591 18.854 24.764 C 18.341 24.931 17.937 25.187 17.644 25.534 C 17.344 25.881 17.194 26.311 17.194 26.824 C 17.194 27.244 17.317 27.617 17.564 27.944 C 17.817 28.271 18.254 28.597 18.874 28.924 C 19.494 29.251 20.364 29.631 21.484 30.064 C 24.151 30.844 26.174 31.824 27.554 33.004 C 28.934 34.177 29.624 35.774 29.624 37.794 C 29.624 39.181 29.247 40.361 28.494 41.334 C 27.741 42.307 26.694 43.047 25.354 43.554 C 24.007 44.067 22.444 44.324 20.664 44.324 ZM 39.834 44.324 C 37.288 44.324 35.271 43.517 33.784 41.904 C 32.304 40.291 31.564 37.901 31.564 34.734 L 31.564 29.784 C 31.564 26.631 32.304 24.241 33.784 22.614 C 35.271 20.994 37.278 20.184 39.804 20.184 C 42.304 20.184 44.298 20.994 45.784 22.614 C 47.271 24.241 48.014 26.631 48.014 29.784 L 48.014 34.734 C 48.014 37.901 47.278 40.291 45.804 41.904 C 44.324 43.517 42.334 44.324 39.834 44.324 Z M 39.834 40.024 C 40.661 40.024 41.294 39.644 41.734 38.884 C 42.174 38.124 42.394 36.847 42.394 35.054 L 42.394 29.434 C 42.394 27.674 42.168 26.411 41.714 25.644 C 41.268 24.884 40.631 24.504 39.804 24.504 C 38.944 24.504 38.294 24.884 37.854 25.644 C 37.408 26.397 37.184 27.661 37.184 29.434 L 37.184 35.054 C 37.184 36.861 37.408 38.141 37.854 38.894 C 38.294 39.647 38.954 40.024 39.834 40.024 ZM 58.707 44.324 C 56.16 44.324 54.144 43.517 52.657 41.904 C 51.177 40.291 50.437 37.901 50.437 34.734 L 50.437 29.784 C 50.437 26.631 51.177 24.241 52.657 22.614 C 54.144 20.994 56.15 20.184 58.677 20.184 C 61.177 20.184 63.17 20.994 64.657 22.614 C 66.144 24.241 66.887 26.631 66.887 29.784 L 66.887 34.734 C 66.887 37.901 66.15 40.291 64.677 41.904 C 63.197 43.517 61.207 44.324 58.707 44.324 Z M 58.707 40.024 C 59.534 40.024 60.167 39.644 60.607 38.884 C 61.047 38.124 61.267 36.847 61.267 35.054 L 61.267 29.434 C 61.267 27.674 61.04 26.411 60.587 25.644 C 60.14 24.884 59.504 24.504 58.677 24.504 C 57.817 24.504 57.167 24.884 56.727 25.644 C 56.28 26.397 56.057 27.661 56.057 29.434 L 56.057 35.054 C 56.057 36.861 56.28 38.141 56.727 38.894 C 57.167 39.647 57.827 40.024 58.707 40.024 ZM 79.612 43.984 L 68.622 43.984 L 68.622 40.684 L 71.092 40.084 L 71.092 24.454 L 68.622 23.844 L 68.622 20.524 L 71.092 20.524 L 79.612 20.524 C 81.732 20.524 83.608 21.014 85.242 21.994 C 86.875 22.981 88.152 24.341 89.072 26.074 C 89.998 27.807 90.462 29.807 90.462 32.074 L 90.462 32.444 C 90.462 34.711 89.998 36.714 89.072 38.454 C 88.152 40.187 86.875 41.541 85.242 42.514 C 83.608 43.494 81.732 43.984 79.612 43.984 Z M 76.752 24.824 L 76.752 39.694 L 79.322 39.694 C 80.515 39.694 81.515 39.394 82.322 38.794 C 83.128 38.194 83.738 37.347 84.152 36.254 C 84.565 35.167 84.772 33.897 84.772 32.444 L 84.772 32.064 C 84.772 30.611 84.565 29.341 84.152 28.254 C 83.738 27.174 83.128 26.331 82.322 25.724 C 81.515 25.124 80.515 24.824 79.322 24.824 L 76.752 24.824 Z" transform="matrix(1, 0, 0, 1, 0, 0)" style="fill: url(#gradient-2-0); white-space: pre;"/>
</svg>