<?xml version="1.0" standalone="no"?>
<!DOCTYPE svg PUBLIC "-//W3C//DTD SVG 20010904//EN"
 "http://www.w3.org/TR/2001/REC-SVG-20010904/DTD/svg10.dtd">
<svg version="1.0" xmlns="http://www.w3.org/2000/svg"
 width="892.000000pt" height="892.000000pt" viewBox="0 0 892.000000 892.000000"
 preserveAspectRatio="xMidYMid meet">
<metadata>
Created by potrace 1.11, written by Peter Selinger 2001-2013
</metadata>
<g transform="translate(0.000000,892.000000) scale(0.100000,-0.100000)"
fill="#000000" stroke="none">
<path d="M4210 8909 c-570 -31 -1139 -175 -1657 -420 -145 -68 -343 -178 -343
-191 0 -4 -7 -8 -17 -8 -26 0 -433 -270 -433 -288 0 -6 46 -67 70 -93 8 -9 27
-32 42 -50 15 -19 37 -45 49 -59 11 -14 35 -45 52 -70 17 -25 41 -54 54 -65
13 -11 23 -24 23 -27 0 -4 13 -22 30 -40 16 -18 30 -38 30 -44 0 -7 13 -26 30
-44 16 -17 29 -35 27 -38 -1 -4 6 -18 16 -32 11 -15 17 -19 17 -10 1 10 4 9
12 -5 6 -11 19 -29 30 -41 11 -12 16 -28 12 -37 -8 -21 -24 -22 -24 -2 0 8 -7
15 -15 15 -8 0 -15 4 -15 9 0 5 -18 32 -40 60 -27 33 -38 56 -33 67 4 11 3 15
-4 11 -21 -13 -43 6 -117 102 -41 54 -86 111 -100 126 -15 16 -36 45 -48 64
-11 20 -26 41 -32 46 -24 22 -86 104 -86 114 0 18 -21 12 -59 -16 -102 -78
-339 -295 -413 -378 l-37 -42 177 -181 c97 -100 182 -182 187 -182 6 0 18 12
27 28 14 24 28 41 68 89 27 32 50 81 50 106 0 16 4 26 10 22 6 -3 10 -15 10
-26 0 -11 7 -34 17 -52 9 -18 18 -44 19 -60 2 -15 11 -51 20 -80 9 -28 18 -58
20 -64 5 -18 29 -16 48 2 8 8 21 15 29 15 8 0 31 11 51 25 43 29 59 32 52 8
-3 -10 -8 -54 -11 -98 -3 -44 -9 -98 -15 -120 -5 -25 -5 -44 0 -49 6 -6 72 -5
172 2 142 10 188 15 233 26 6 2 28 6 50 11 22 4 48 12 58 17 17 8 15 13 -17
48 -19 21 -43 54 -52 72 -9 18 -29 44 -43 59 -34 33 -102 115 -123 148 -13 22
-14 28 -3 38 11 10 18 6 38 -20 14 -18 38 -45 52 -62 15 -16 38 -46 50 -65 13
-19 37 -48 54 -64 17 -17 31 -36 31 -43 0 -7 4 -13 9 -13 4 0 21 -18 36 -40
29 -42 43 -47 94 -29 l31 11 0 111 c0 114 17 248 29 228 4 -6 6 -79 4 -161 -2
-144 -2 -150 17 -150 32 0 113 34 163 68 25 18 50 32 55 32 15 0 91 70 97 90
4 11 -2 28 -14 42 -11 13 -20 27 -20 31 0 5 -8 16 -18 24 -16 13 -16 14 -1 9
12 -3 15 -1 11 10 -9 25 12 15 30 -13 36 -59 44 -65 65 -54 23 12 108 156 146
247 27 66 44 153 48 246 3 69 -10 66 213 57 162 -7 230 -13 319 -30 63 -12
146 -12 146 0 0 32 -257 70 -500 74 -82 1 -150 3 -150 4 0 1 17 7 38 14 78 25
179 79 238 128 5 4 32 21 60 36 53 29 84 54 84 66 0 11 99 109 110 109 4 0 18
19 30 43 58 113 87 147 124 147 15 0 25 5 24 12 -2 6 8 17 22 24 13 7 31 22
40 33 18 23 70 39 70 21 0 -14 41 -3 52 14 4 6 15 11 25 11 11 0 17 6 15 16
-1 9 9 21 22 27 22 10 24 9 19 -6 -6 -15 -4 -15 15 2 11 10 27 16 34 13 9 -4
7 -6 -4 -6 -20 -1 -13 -31 7 -31 7 0 16 -6 18 -12 3 -7 6 -1 6 14 1 15 6 30
13 34 7 4 8 3 4 -4 -6 -11 5 -16 26 -14 3 1 9 -5 12 -13 3 -8 0 -15 -7 -15 -7
-1 -5 -6 6 -14 9 -7 17 -19 17 -25 0 -7 7 -19 16 -28 8 -9 13 -21 10 -28 -3
-8 2 -16 10 -19 8 -3 14 -15 14 -27 0 -18 4 -20 28 -14 15 3 41 13 57 20 17 7
46 17 65 20 40 8 105 40 115 55 4 6 11 8 16 5 5 -4 9 1 9 9 0 11 9 16 29 16
17 0 33 5 36 10 3 6 13 10 22 10 9 0 25 8 36 18 19 17 19 16 12 -18 -4 -19
-11 -41 -15 -50 -5 -8 -13 -34 -20 -58 -6 -23 -15 -40 -20 -37 -4 3 -6 -3 -4
-12 6 -25 -17 -65 -41 -70 -11 -3 -51 -6 -90 -7 -42 -2 -83 -10 -102 -20 -18
-10 -37 -15 -42 -12 -5 4 -12 2 -16 -4 -3 -5 -14 -10 -24 -10 -10 0 -24 -7
-31 -15 -7 -9 -22 -13 -34 -10 -12 3 -15 2 -8 -1 18 -8 5 -24 -21 -24 -22 -1
-22 -1 -2 -17 19 -15 19 -15 -12 -9 -26 4 -33 2 -33 -10 0 -8 -4 -13 -9 -9
-14 8 -76 -29 -76 -46 0 -8 9 -14 20 -14 11 0 20 5 20 10 0 6 4 16 9 24 7 12
11 10 18 -9 5 -15 5 -26 -1 -30 -6 -3 -10 -19 -8 -36 1 -22 7 -31 22 -32 12
-1 15 2 8 6 -10 6 -9 14 2 35 8 15 10 25 5 22 -6 -4 -10 5 -10 19 0 14 5 28
10 31 6 3 10 0 10 -7 0 -10 3 -9 9 1 8 12 14 13 36 3 15 -7 24 -8 20 -2 -3 5
1 10 9 10 9 0 16 -4 16 -10 0 -5 5 -10 11 -10 5 0 7 5 3 11 -5 9 6 10 40 7 34
-4 46 -2 46 7 0 11 6 10 30 -1 17 -9 31 -19 31 -22 14 -72 16 -103 8 -108 -5
-3 -9 -9 -9 -14 0 -15 24 -1 44 27 11 14 14 23 8 19 -7 -4 -10 4 -10 23 1 17
5 28 10 25 4 -3 11 3 15 13 16 43 44 70 69 65 20 -4 22 -7 13 -19 -19 -22 -21
-69 -4 -83 18 -15 19 -6 3 23 -10 20 -10 21 5 8 14 -11 18 -11 24 5 9 25 34
43 50 37 10 -4 12 8 9 48 -2 30 -7 62 -11 72 -5 12 0 29 14 48 12 16 19 34 16
39 -3 5 -1 11 5 15 6 3 13 -1 17 -11 5 -15 8 -14 15 7 l9 24 15 -25 c9 -14 13
-17 10 -8 -3 11 2 22 15 28 10 6 19 7 18 3 -1 -4 0 -11 1 -15 1 -5 4 -12 5
-18 1 -5 3 -13 5 -17 1 -5 1 -29 0 -55 -1 -29 3 -48 9 -48 6 0 11 -8 11 -18 0
-10 5 -23 12 -30 10 -10 6 -11 -19 -6 -29 6 -31 4 -26 -15 3 -11 9 -22 14 -22
5 -1 15 -2 22 -3 6 -1 20 7 29 18 10 13 18 16 18 8 0 -9 5 -10 19 -2 14 7 22
7 27 -1 5 -8 10 -6 16 5 5 9 17 16 28 16 10 0 21 6 23 13 3 7 6 5 6 -5 1 -11
-9 -20 -24 -24 -27 -7 -34 -24 -9 -24 8 0 13 -4 9 -9 -3 -5 0 -13 7 -17 7 -4
10 -4 6 1 -12 13 13 37 26 25 8 -6 26 -2 55 12 42 20 42 22 21 33 -20 11 -20
13 -5 18 23 9 22 10 29 -18 4 -14 10 -25 15 -25 4 0 6 -11 4 -24 -3 -13 -1
-26 5 -30 5 -3 7 6 4 21 -3 18 -1 24 7 19 7 -5 10 0 8 15 -1 12 4 24 12 27 9
3 11 0 6 -8 -6 -10 -4 -12 9 -7 10 4 19 1 22 -8 5 -11 11 -12 25 -4 11 5 17
15 13 21 -4 7 -9 6 -14 -2 -6 -9 -11 -6 -20 10 -16 29 -9 33 25 16 30 -16 55
-7 55 18 0 6 -5 4 -10 -4 -7 -12 -10 -12 -10 -1 0 7 -6 11 -14 8 -16 -6 -26
11 -19 31 6 17 43 15 43 -2 0 -8 4 -17 9 -20 17 -11 72 16 85 41 7 15 16 21
19 16 4 -6 -3 -22 -14 -37 -13 -16 -15 -24 -6 -21 8 4 18 -4 24 -17 10 -20 12
-21 18 -6 6 14 10 15 26 5 14 -9 21 -9 31 1 9 9 6 12 -17 13 -17 1 -35 1 -42
0 -17 -2 -27 19 -15 31 8 8 16 7 27 -2 8 -7 26 -10 39 -8 16 3 23 1 19 -8 -2
-6 1 -15 7 -19 8 -5 8 -11 -1 -21 -9 -11 -7 -14 14 -14 18 0 28 -8 37 -30 7
-16 17 -30 22 -30 5 0 19 -11 32 -25 29 -31 52 -34 36 -6 -12 24 -13 31 -1 31
5 0 11 -8 13 -17 2 -12 6 -14 11 -6 4 6 0 18 -9 27 -14 15 -13 17 11 26 34 13
35 13 35 -5 0 -18 42 -37 51 -23 3 5 14 6 25 2 15 -4 13 -1 -6 15 -14 11 -30
19 -37 16 -6 -2 -14 2 -17 10 -3 9 0 12 10 8 18 -7 18 15 -1 61 -9 20 -13 41
-10 46 10 16 45 11 45 -5 0 -8 5 -15 10 -15 6 0 10 -9 10 -20 0 -14 5 -18 17
-13 11 5 14 3 8 -6 -5 -10 -2 -11 14 -6 13 4 21 2 21 -5 0 -6 -4 -8 -10 -5 -5
3 -10 1 -10 -5 0 -6 10 -15 23 -20 12 -5 16 -9 7 -9 -9 -1 -2 -12 20 -31 40
-34 43 -35 60 -15 7 8 16 13 20 10 8 -5 20 30 25 73 5 34 13 38 33 18 16 -17
16 -18 -5 -12 -17 6 -20 3 -17 -12 6 -19 64 -31 64 -12 0 5 4 10 9 10 6 0 7
-16 4 -35 -5 -28 -2 -35 11 -35 10 0 14 -4 11 -10 -3 -5 1 -10 10 -10 9 0 13
5 10 10 -3 6 3 10 15 10 12 0 18 -4 15 -10 -3 -5 -1 -10 4 -10 11 0 13 6 16
80 1 46 -22 79 -45 65 -6 -3 -10 -4 -10 0 0 3 11 10 25 15 14 5 25 13 25 18 0
10 -102 41 -114 34 -6 -3 -20 -6 -31 -7 -20 0 -21 3 -14 39 5 31 4 43 -9 52
-14 10 -14 13 5 25 l21 13 -24 38 c-13 21 -20 38 -14 38 5 0 9 6 8 13 -2 6 3
11 10 9 6 -1 12 4 12 10 0 13 -145 74 -305 128 -387 131 -788 208 -1200 230
-202 11 -263 11 -485 -1z m3 -279 c3 -11 1 -18 -4 -14 -5 3 -9 12 -9 20 0 20
7 17 13 -6z m67 -1 c0 -13 -28 -18 -33 -6 -3 7 3 13 14 13 11 0 19 -3 19 -7z
m90 -20 c0 -5 -4 -9 -10 -9 -5 0 -10 7 -10 16 0 8 5 12 10 9 6 -3 10 -10 10
-16z m28 -30 c-3 -8 -7 -3 -11 10 -4 17 -3 21 5 13 5 -5 8 -16 6 -23z m-183 1
c3 -5 1 -10 -4 -10 -6 0 -11 -8 -12 -17 0 -15 -2 -15 -8 2 -12 30 8 51 24 25z
m-37 -50 c-3 -13 -14 -16 -47 -11 -5 0 -4 12 2 25 9 19 14 22 29 12 10 -6 17
-18 16 -26z m1799 -212 c-3 -8 -6 -5 -6 6 -1 11 2 17 5 13 3 -3 4 -12 1 -19z
m-3747 -43 c0 -14 -4 -25 -10 -25 -11 0 -14 33 -3 43 11 11 13 8 13 -18z m33
-30 c-3 -9 1 -15 10 -15 8 0 30 -19 48 -42 19 -23 39 -47 46 -53 8 -9 9 -15 1
-23 -6 -6 -7 -16 -3 -23 6 -9 11 -8 20 4 10 13 14 11 30 -19 17 -33 18 -36 2
-52 -16 -16 -17 -15 -11 17 6 30 5 33 -13 27 -16 -5 -28 2 -53 33 -17 23 -29
45 -25 50 3 6 -12 27 -33 48 -23 23 -36 45 -34 56 2 9 7 15 12 12 5 -3 7 -12
3 -20z m2517 5 c0 -5 -4 -10 -10 -10 -5 0 -10 5 -10 10 0 6 5 10 10 10 6 0 10
-4 10 -10z m1560 -35 c0 -12 -19 -12 -23 0 -4 9 -1 12 9 8 7 -3 14 -7 14 -8z
m-1542 -23 c2 -12 -2 -22 -8 -22 -6 0 -8 5 -5 10 3 6 2 10 -4 10 -5 0 -13 -4
-16 -10 -3 -5 -16 -10 -28 -9 l-22 0 23 9 c12 5 25 17 28 25 9 22 28 13 32
-13z m-188 -13 c0 -5 -10 -9 -21 -9 -18 0 -19 2 -9 15 12 15 30 12 30 -6z
m-56 -5 c10 -25 1 -27 -25 -5 -24 20 -24 20 -3 21 12 0 25 -7 28 -16z m106 0
c0 -8 -5 -12 -10 -9 -6 4 -8 11 -5 16 9 14 15 11 15 -7z m1446 -4 c8 0 14 5
14 10 0 6 6 10 12 10 7 0 2 -10 -10 -22 -19 -20 -24 -21 -32 -8 -5 8 -9 20 -9
25 0 6 3 4 6 -2 2 -7 11 -13 19 -13z m-2656 -140 c0 -5 -5 -10 -11 -10 -5 0
-7 5 -4 10 3 6 8 10 11 10 2 0 4 -4 4 -10z m-90 -20 c12 -8 11 -10 -6 -10 -12
0 -42 -11 -68 -25 -25 -13 -46 -22 -46 -18 0 3 -8 -1 -17 -9 -20 -17 -66 -31
-58 -18 3 5 -1 11 -7 13 -7 3 -4 6 8 6 11 1 25 6 32 13 7 7 12 9 12 4 0 -4 7
0 17 9 9 10 26 15 40 12 12 -2 23 -1 23 3 0 6 37 28 50 29 3 0 12 -4 20 -9z
m-920 -10 c0 -5 -4 -10 -10 -10 -5 0 -10 5 -10 10 0 6 5 10 10 10 6 0 10 -4
10 -10z m50 -24 c0 -5 -3 -6 -7 -3 -3 4 -12 -1 -19 -11 -17 -22 -19 1 -2 28 9
14 14 16 20 7 4 -7 8 -16 8 -21z m20 -36 c0 -5 -4 -10 -10 -10 -5 0 -10 5 -10
10 0 6 5 10 10 10 6 0 10 -4 10 -10z m23 -50 c-3 -12 -8 -19 -11 -16 -5 6 5
36 12 36 2 0 2 -9 -1 -20z m582 10 c-3 -6 -20 -17 -37 -26 -23 -12 -29 -13
-26 -2 4 12 44 38 61 38 5 0 5 -5 2 -10z m-555 -50 c0 -5 -2 -10 -4 -10 -3 0
-8 5 -11 10 -3 6 -1 10 4 10 6 0 11 -4 11 -10z m478 -2 c-3 -7 -13 -15 -24
-17 -16 -3 -17 -1 -5 13 16 19 34 21 29 4z m-439 -27 c9 -6 10 -14 4 -25 -8
-15 -11 -14 -21 9 -12 26 -7 31 17 16z m41 -46 c0 -8 5 -15 11 -15 5 0 7 -5 3
-12 -5 -7 -2 -9 9 -5 8 3 18 0 21 -8 8 -21 -19 -25 -37 -5 -8 10 -13 21 -10
24 4 3 -1 6 -10 6 -10 0 -14 5 -11 15 4 8 10 15 15 15 5 0 9 -7 9 -15z m290
-29 c0 -9 -7 -12 -21 -9 -16 4 -17 8 -7 14 19 13 28 11 28 -5z m-40 -21 c0 -3
-7 -22 -15 -43 -12 -28 -18 -33 -25 -22 -6 10 -4 20 6 31 7 8 14 21 14 27 0 7
5 12 10 12 6 0 10 -2 10 -5z m-156 -66 c-10 -17 15 -46 38 -43 13 1 25 3 28 4
3 1 8 2 13 1 4 0 7 6 7 14 0 8 5 15 10 15 6 0 10 -9 10 -20 0 -11 -7 -20 -16
-20 -26 0 -7 -37 73 -144 68 -91 82 -121 56 -121 -5 0 -23 15 -38 33 -23 28
-26 36 -14 44 11 8 11 9 -3 5 -19 -7 -53 27 -43 43 3 6 1 9 -7 8 -9 -2 -12 6
-10 23 1 15 -5 32 -14 40 -15 12 -16 11 -9 -11 7 -21 6 -23 -7 -12 -22 18 -35
-2 -68 -100 -29 -86 -42 -87 -28 -3 8 47 17 75 39 117 18 34 9 63 -29 99 l-38
36 27 0 c16 0 26 -4 23 -8z"/>
<path d="M4150 8540 c0 -5 5 -10 11 -10 5 0 7 5 4 10 -3 6 -8 10 -11 10 -2 0
-4 -4 -4 -10z"/>
<path d="M2320 8141 c0 -5 7 -11 14 -14 10 -4 13 -1 9 9 -6 15 -23 19 -23 5z"/>
<path d="M4290 8545 c-1 -5 -2 -13 -1 -17 0 -5 -3 -8 -9 -8 -5 0 -10 -5 -10
-12 0 -8 6 -7 16 4 9 9 14 22 11 30 -3 7 -6 9 -7 3z"/>
<path d="M6200 8533 c-13 -15 -12 -16 4 -10 10 4 20 7 22 7 2 0 4 5 4 10 0 15
-13 12 -30 -7z"/>
<path d="M4320 8510 c0 -5 5 -10 11 -10 5 0 7 5 4 10 -3 6 -8 10 -11 10 -2 0
-4 -4 -4 -10z"/>
<path d="M4192 8498 c-16 -16 -15 -28 3 -28 8 0 15 9 15 20 0 23 -2 24 -18 8z"/>
<path d="M4389 8487 c6 -8 9 -17 6 -21 -3 -3 0 -2 6 3 12 10 4 31 -13 31 -7 0
-7 -4 1 -13z"/>
<path d="M4340 8481 c0 -9 30 -24 36 -18 2 1 -6 8 -16 15 -11 7 -20 8 -20 3z"/>
<path d="M4295 8471 c-3 -5 0 -13 6 -17 7 -4 9 -3 5 4 -3 5 0 13 6 15 9 4 10
6 1 6 -6 1 -14 -3 -18 -8z"/>
<path d="M4390 8441 c0 -5 7 -11 14 -14 10 -4 13 -1 9 9 -6 15 -23 19 -23 5z"/>
<path d="M4190 8400 c0 -5 5 -10 10 -10 6 0 10 5 10 10 0 6 -4 10 -10 10 -5 0
-10 -4 -10 -10z"/>
<path d="M6203 8349 c-1 -11 5 -19 13 -19 18 0 19 26 1 33 -8 3 -14 -3 -14
-14z"/>
<path d="M6675 8313 c4 -10 12 -30 17 -45 8 -24 14 -27 36 -22 53 13 53 19 -4
52 -44 25 -55 28 -49 15z"/>
<path d="M5460 8241 c0 -5 7 -11 14 -14 10 -4 13 -1 9 9 -6 15 -23 19 -23 5z"/>
<path d="M5545 8180 c-3 -5 -1 -10 4 -10 6 0 11 5 11 10 0 6 -2 10 -4 10 -3 0
-8 -4 -11 -10z"/>
<path d="M5605 8170 c-7 -11 -8 -11 23 -14 13 -2 26 2 29 7 3 6 1 7 -5 3 -6
-3 -13 -2 -17 4 -8 13 -22 13 -30 0z"/>
<path d="M6194 8168 c-5 -7 -3 -8 6 -3 9 6 12 4 8 -6 -4 -10 1 -15 13 -15 10
0 21 7 24 15 3 9 3 12 -1 9 -4 -4 -15 -3 -25 2 -12 7 -20 6 -25 -2z"/>
<path d="M5696 8162 c-2 -4 -1 -14 4 -22 7 -11 9 -9 7 8 -1 24 -3 26 -11 14z"/>
<path d="M5880 8137 c0 -10 7 -25 15 -33 19 -19 19 -14 0 22 -11 21 -15 24
-15 11z"/>
<path d="M5280 8126 c0 -8 -6 -17 -12 -19 -10 -4 -9 -8 2 -16 13 -9 13 -11 -2
-11 -10 0 -18 -5 -18 -11 0 -5 -4 -7 -10 -4 -5 3 -10 1 -10 -4 0 -16 19 -13
36 4 8 8 21 12 29 9 8 -4 15 -1 15 5 0 6 -4 11 -10 11 -14 0 -12 28 2 32 7 3
6 7 -5 11 -11 4 -17 1 -17 -7z"/>
<path d="M5590 8129 c0 -5 5 -7 10 -4 6 3 10 8 10 11 0 2 -4 4 -10 4 -5 0 -10
-5 -10 -11z"/>
<path d="M4997 8119 c7 -7 15 -10 18 -7 3 3 -2 9 -12 12 -14 6 -15 5 -6 -5z"/>
<path d="M6000 8122 c0 -7 -10 -12 -22 -12 -21 0 -21 0 -2 -14 17 -13 20 -12
27 6 4 12 5 23 2 26 -3 3 -5 0 -5 -6z"/>
<path d="M6974 8113 c-3 -10 -10 -26 -15 -35 -5 -10 -9 -25 -9 -33 0 -9 -4
-13 -10 -10 -5 3 -10 -1 -10 -9 0 -9 -9 -25 -19 -35 -11 -11 -17 -22 -13 -25
3 -3 0 -6 -7 -6 -20 0 18 -55 53 -75 17 -10 34 -23 38 -29 5 -7 8 -5 8 5 0 9
7 16 15 16 8 0 15 -9 15 -19 0 -17 5 -19 33 -13 39 9 47 13 47 26 0 6 -4 7
-10 4 -6 -3 -7 1 -3 10 5 13 7 14 14 3 12 -18 11 -61 -1 -53 -5 3 -10 2 -10
-3 0 -17 -61 -7 -75 11 -11 16 -12 15 -12 -8 0 -14 5 -25 11 -26 6 0 24 -3 39
-5 16 -3 35 0 42 6 10 8 14 7 18 -2 5 -12 12 56 8 76 -5 22 10 56 24 56 19 0
23 -21 30 -155 9 -191 19 -254 44 -271 11 -8 21 -20 21 -25 0 -6 9 -18 19 -27
11 -10 69 -80 130 -157 61 -77 118 -147 126 -156 8 -9 15 -21 15 -27 0 -32 88
9 250 117 30 20 67 43 82 50 33 17 38 9 -115 179 -184 204 -422 418 -637 573
-133 96 -129 94 -136 72z"/>
<path d="M4860 8101 c0 -12 6 -21 15 -21 8 0 15 4 15 9 0 5 -7 14 -15 21 -13
10 -15 9 -15 -9z"/>
<path d="M5220 8115 c0 -18 19 -40 26 -32 4 4 0 15 -9 24 -9 10 -17 13 -17 8z"/>
<path d="M6126 8111 c-3 -4 3 -16 14 -26 10 -9 16 -23 13 -31 -3 -8 0 -15 6
-15 6 -1 16 -2 21 -3 6 0 9 -4 8 -7 -2 -3 3 -13 11 -23 12 -14 17 -15 35 -3
12 8 34 17 49 21 22 5 26 10 18 20 -6 7 -9 15 -6 17 2 3 -4 5 -15 5 -13 0 -16
-4 -9 -12 6 -8 4 -14 -8 -19 -10 -5 -22 -7 -26 -6 -5 1 -5 -4 -1 -10 4 -8 3
-9 -4 -5 -6 4 -9 13 -5 21 3 8 1 15 -5 15 -6 0 -12 -5 -14 -12 -4 -12 -48 52
-48 71 0 13 -26 15 -34 2z"/>
<path d="M6185 8110 c-3 -5 -1 -10 4 -10 6 0 11 5 11 10 0 6 -2 10 -4 10 -3 0
-8 -4 -11 -10z"/>
<path d="M6216 8094 c-20 -19 -20 -19 2 -21 11 -1 18 6 19 18 2 23 -1 24 -21
3z"/>
<path d="M4631 8086 c-9 -10 -8 -15 2 -19 8 -3 13 3 14 14 2 23 -1 24 -16 5z"/>
<path d="M5025 8090 c-3 -5 1 -10 10 -10 9 0 13 5 10 10 -3 6 -8 10 -10 10 -2
0 -7 -4 -10 -10z"/>
<path d="M6357 8086 c-4 -10 -1 -13 9 -9 15 6 19 23 5 23 -5 0 -11 -7 -14 -14z"/>
<path d="M4542 8074 c-7 -8 -9 -14 -5 -14 4 0 -1 -7 -11 -15 -11 -8 -16 -18
-12 -22 4 -5 13 0 20 9 7 10 16 15 19 11 4 -3 1 -13 -6 -21 -11 -13 -9 -14 10
-1 20 12 21 15 7 30 -12 13 -12 18 -3 21 7 2 9 7 4 10 -6 3 -16 0 -23 -8z"/>
<path d="M5145 8080 c-3 -5 -1 -10 5 -10 6 0 8 -5 4 -12 -4 -7 -3 -8 4 -4 6 4
9 13 5 21 -6 18 -10 19 -18 5z"/>
<path d="M6017 8079 c7 -7 15 -10 18 -7 3 3 -2 9 -12 12 -14 6 -15 5 -6 -5z"/>
<path d="M4494 8073 c3 -6 0 -13 -6 -16 -7 -2 -11 -7 -8 -10 3 -3 12 -2 20 3
13 8 13 11 1 22 -8 8 -11 8 -7 1z"/>
<path d="M5946 8072 c-2 -4 -1 -14 4 -22 7 -11 9 -9 7 8 -1 24 -3 26 -11 14z"/>
<path d="M5980 8055 c0 -8 5 -15 10 -15 6 0 10 7 10 15 0 8 -4 15 -10 15 -5 0
-10 -7 -10 -15z"/>
<path d="M6310 8061 c0 -5 7 -12 16 -15 22 -9 24 -8 18 9 -7 16 -34 21 -34 6z"/>
<path d="M4270 8051 c0 -5 8 -15 18 -24 16 -15 18 -15 19 2 1 11 -7 21 -18 24
-10 3 -19 2 -19 -2z"/>
<path d="M4590 8043 c11 -23 50 -32 50 -12 0 6 -8 9 -17 7 -10 -2 -24 3 -31
12 -11 13 -11 11 -2 -7z"/>
<path d="M5860 8052 c0 -7 -8 -12 -17 -12 -16 -1 -16 -2 1 -15 11 -8 25 -15
30 -15 6 0 5 4 -3 9 -11 7 -11 9 0 14 11 4 12 7 2 18 -10 9 -13 10 -13 1z"/>
<path d="M6030 8051 c0 -6 5 -13 10 -16 6 -3 10 1 10 9 0 9 -4 16 -10 16 -5 0
-10 -4 -10 -9z"/>
<path d="M5908 8031 c-9 -11 -14 -22 -11 -25 8 -7 35 22 31 34 -2 6 -11 2 -20
-9z"/>
<path d="M4480 8020 c-8 -5 -12 -12 -9 -15 4 -3 12 1 19 10 14 17 11 19 -10 5z"/>
<path d="M4920 8019 c0 -5 -5 -7 -12 -3 -7 4 -8 3 -4 -4 9 -15 -20 -58 -69
-102 -22 -19 -58 -52 -80 -73 -22 -21 -46 -37 -55 -35 -21 3 -76 -15 -131 -42
-15 -8 -233 -7 -273 1 -26 5 -30 -13 -9 -36 58 -64 136 -203 167 -299 17 -50
19 -119 3 -113 -7 2 -72 161 -94 230 -3 9 -9 17 -13 17 -5 0 -23 26 -40 57
-18 31 -42 65 -54 74 -26 22 -66 25 -66 5 0 -18 -13 -26 -56 -36 -22 -5 -35
-4 -38 4 -10 22 -44 -34 -61 -101 -17 -71 -22 -237 -9 -342 5 -40 3 -55 -7
-62 -34 -21 5 -15 86 13 269 92 544 74 800 -55 33 -16 78 -42 100 -57 22 -15
44 -29 49 -31 23 -10 187 -191 221 -244 56 -87 110 -208 137 -305 19 -73 23
-109 23 -250 0 -141 -4 -177 -23 -250 -46 -168 -128 -314 -250 -442 -105 -109
-237 -197 -374 -247 -129 -48 -178 -55 -348 -56 -142 0 -177 4 -250 23 -168
46 -314 128 -442 250 -109 105 -197 237 -247 374 -47 128 -55 178 -56 348 0
142 3 177 23 250 26 95 93 244 142 315 72 104 213 235 340 313 29 18 31 22 14
22 -12 0 -27 -7 -34 -15 -22 -27 -30 -16 -30 43 0 32 -3 61 -6 65 -10 10 -34
-4 -35 -22 0 -10 -3 -11 -6 -4 -3 9 -11 8 -31 -5 -15 -9 -29 -19 -32 -22 -3
-3 -17 -11 -32 -17 -16 -7 -28 -17 -28 -23 0 -6 -4 -9 -10 -5 -5 3 -6 13 -3
23 6 15 4 14 -12 -2 -14 -14 -16 -21 -7 -24 29 -9 9 -24 -28 -19 -22 2 -40 0
-40 -5 0 -5 -10 -18 -22 -29 -17 -13 -19 -18 -8 -19 9 0 23 9 33 20 10 12 22
18 28 15 7 -5 6 -12 -2 -21 -6 -8 -14 -12 -17 -9 -3 3 -11 0 -19 -6 -10 -9
-10 -15 -2 -25 9 -11 7 -15 -5 -20 -9 -3 -13 -10 -10 -15 3 -5 -2 -12 -10 -15
-22 -9 -20 -17 13 -51 28 -30 28 -31 13 -63 -8 -17 -21 -34 -29 -37 -7 -3 -13
-9 -13 -14 0 -11 -69 -111 -83 -120 -5 -4 -6 -12 -2 -19 5 -9 4 -11 -3 -6 -8
5 -12 0 -12 -13 0 -12 -9 -38 -20 -58 -11 -21 -20 -44 -20 -51 0 -7 -8 -29
-19 -50 -10 -20 -21 -57 -25 -82 -13 -102 -22 -158 -26 -170 -6 -18 12 -295
20 -302 2 -3 8 -36 12 -65 1 -7 6 -13 11 -13 5 0 7 -7 3 -15 -3 -8 -1 -15 5
-15 6 0 9 -7 5 -15 -3 -8 -1 -15 4 -15 6 0 10 -9 10 -20 0 -11 4 -20 10 -20 5
0 7 -7 4 -15 -4 -8 -1 -15 5 -15 6 0 10 -3 9 -7 -1 -5 4 -21 10 -36 7 -16 12
-33 12 -38 0 -5 12 -23 28 -40 15 -17 27 -35 27 -40 0 -5 5 -13 11 -17 20 -14
64 -79 57 -85 -3 -4 -1 -7 6 -7 7 0 47 -35 89 -77 42 -43 80 -78 84 -78 3 0
18 -10 31 -22 14 -12 27 -19 30 -17 2 2 12 -5 22 -16 10 -11 22 -20 28 -20 17
0 137 -62 137 -71 0 -5 6 -6 14 -3 8 3 34 -3 58 -14 24 -10 49 -17 57 -14 8 3
11 0 7 -6 -3 -5 4 -10 17 -10 24 0 102 -10 102 -12 0 -5 59 -9 127 -10 l77 -1
-30 -47 c-43 -68 -59 -132 -59 -237 0 -109 17 -172 72 -270 48 -85 85 -125
143 -154 58 -29 74 -32 180 -35 146 -4 244 42 298 142 23 42 25 54 17 79 -8
20 -8 38 0 57 18 48 14 52 -87 82 -54 16 -100 28 -102 27 -2 -1 -10 -18 -17
-38 -46 -135 -232 -137 -256 -2 -7 38 10 123 32 159 45 75 144 92 218 39 22
-16 43 -34 47 -40 9 -16 82 -13 120 5 39 18 49 38 35 64 -13 25 -13 28 5 32
13 2 11 12 -11 57 -36 71 -91 124 -159 152 -30 12 -55 27 -55 31 0 5 4 7 9 3
5 -3 13 -1 16 5 4 6 32 22 63 36 31 14 60 32 65 40 4 7 13 14 20 14 7 0 30 18
52 40 22 21 44 39 48 40 12 0 37 27 37 39 0 6 5 11 10 11 12 0 50 37 50 48 0
4 9 14 20 22 11 8 20 22 20 31 0 9 7 19 15 23 8 3 15 12 15 20 0 7 7 16 15 20
8 3 15 12 15 20 0 22 35 77 44 69 4 -4 4 0 1 9 -3 8 1 22 9 31 9 9 16 21 16
27 0 6 9 30 20 52 21 44 26 63 10 38 -6 -9 -10 -10 -10 -3 0 6 4 14 9 17 8 5
25 64 22 79 0 4 2 7 6 7 5 0 9 15 10 33 5 103 10 154 17 165 4 6 4 12 -1 12
-4 0 -9 39 -10 88 -2 104 -10 161 -25 180 -9 10 -8 16 3 23 8 5 9 9 4 9 -6 0
-17 21 -24 48 -8 26 -18 54 -22 62 -4 8 -16 33 -27 55 -11 22 -29 57 -41 78
-11 20 -21 40 -22 45 -4 21 -15 38 -41 62 -15 15 -28 30 -28 34 0 4 -13 20
-30 36 l-29 29 56 54 c41 39 52 56 43 62 -9 5 -11 4 -6 -3 4 -7 3 -12 -3 -12
-5 0 -16 -3 -25 -6 -9 -3 -16 -1 -16 5 0 6 7 11 15 11 9 0 12 6 9 15 -5 12 -9
13 -21 3 -12 -10 -14 -9 -11 8 2 11 -2 18 -9 17 -7 -2 -13 4 -13 12 0 8 -7 15
-16 15 -9 0 -12 -5 -8 -12 6 -9 3 -9 -9 1 -19 15 -17 48 4 62 8 5 9 9 3 9 -5
0 -16 -6 -23 -12 -10 -11 -14 -9 -22 5 -6 9 -14 15 -20 12 -5 -4 -9 1 -9 10 0
10 5 13 12 9 7 -4 8 -3 4 4 -4 6 -13 9 -20 6 -7 -3 -19 2 -26 11 -26 31 -31
13 -7 -27 13 -24 28 -59 32 -78 4 -19 11 -37 14 -40 8 -6 51 -93 51 -103 0 -4
-17 9 -37 29 -21 20 -48 40 -61 45 -13 5 -20 13 -17 19 3 5 1 11 -4 11 -6 1
-15 2 -21 3 -5 0 -27 18 -50 39 -22 20 -45 37 -50 37 -27 0 17 101 61 142 20
19 29 37 29 58 0 18 9 43 20 57 11 14 20 34 20 44 0 10 5 21 11 25 6 3 9 14 6
24 -3 13 0 17 9 13 11 -4 14 12 14 84 0 49 3 93 7 96 3 4 8 28 9 54 3 40 -1
52 -36 97 -21 28 -46 59 -54 69 -9 9 -16 21 -16 25 0 5 -11 18 -24 31 -13 12
-32 40 -42 61 -17 37 -54 56 -54 29z m27 -395 c-3 -3 -12 -4 -19 -1 -8 3 -5 6
6 6 11 1 17 -2 13 -5z m43 2 c0 -3 -4 -8 -10 -11 -5 -3 -10 -1 -10 4 0 6 5 11
10 11 6 0 10 -2 10 -4z m-235 -17 c11 -16 1 -19 -13 -3 -7 8 -8 14 -3 14 5 0
13 -5 16 -11z m249 -14 c-4 -9 2 -18 17 -24 13 -5 19 -10 12 -10 -6 -1 -18 -4
-26 -7 -20 -7 -34 35 -16 47 19 12 19 11 13 -6z m-197 -55 c6 -16 7 -30 2 -30
-9 0 -29 33 -29 49 0 22 16 10 27 -19z m73 -10 c0 -5 -5 -10 -11 -10 -5 0 -7
5 -4 10 3 6 8 10 11 10 2 0 4 -4 4 -10z m223 -6 c-7 -3 -9 -13 -6 -22 5 -13 3
-14 -7 -5 -14 13 -5 33 13 32 9 0 9 -2 0 -5z m-193 -34 c0 -5 -2 -10 -4 -10
-3 0 -8 5 -11 10 -3 6 -1 10 4 10 6 0 11 -4 11 -10z m146 -13 c4 -4 -7 -5 -25
-3 -41 5 -51 14 -12 12 16 -1 33 -5 37 -9z m34 -12 c0 -8 -7 -15 -16 -15 -14
0 -14 3 -4 15 7 8 14 15 16 15 2 0 4 -7 4 -15z m-220 -5 c0 -5 9 -10 19 -10
11 0 29 -13 41 -30 24 -34 20 -37 -18 -12 -55 35 -78 62 -52 62 6 0 10 -4 10
-10z m144 -26 c5 -14 4 -15 -9 -4 -17 14 -19 20 -6 20 5 0 12 -7 15 -16z m-39
-24 c3 -5 1 -10 -4 -10 -6 0 -11 5 -11 10 0 6 2 10 4 10 3 0 8 -4 11 -10z m65
-50 c0 -5 -4 -10 -10 -10 -5 0 -10 5 -10 10 0 6 5 10 10 10 6 0 10 -4 10 -10z"/>
<path d="M5104 8022 c3 -5 1 -12 -6 -14 -8 -3 -9 -6 -1 -11 6 -4 13 0 17 8 3
8 0 17 -6 21 -6 4 -8 3 -4 -4z"/>
<path d="M5636 8022 c-3 -5 1 -9 9 -9 8 0 12 4 9 9 -3 4 -7 8 -9 8 -2 0 -6 -4
-9 -8z"/>
<path d="M4550 7989 c0 -5 -5 -7 -12 -3 -7 4 -8 3 -4 -4 4 -6 13 -9 21 -6 8 4
12 10 9 15 -7 12 -14 11 -14 -2z"/>
<path d="M5861 7986 c-13 -16 -2 -29 16 -18 7 4 8 13 4 20 -6 10 -10 10 -20
-2z"/>
<path d="M6034 7939 c-2 -4 12 -9 32 -11 19 -2 37 -1 40 3 2 4 -12 9 -32 11
-19 2 -37 1 -40 -3z"/>
<path d="M5890 7929 c0 -5 5 -7 10 -4 6 3 10 8 10 11 0 2 -4 4 -10 4 -5 0 -10
-5 -10 -11z"/>
<path d="M6000 7931 c0 -6 4 -13 10 -16 6 -3 7 1 4 9 -7 18 -14 21 -14 7z"/>
<path d="M7140 7920 c0 -5 5 -10 11 -10 5 0 7 5 4 10 -3 6 -8 10 -11 10 -2 0
-4 -4 -4 -10z"/>
<path d="M6810 7910 c0 -5 -13 -10 -28 -10 -43 0 -45 -10 -9 -37 51 -38 82
-52 96 -43 11 6 8 14 -13 36 -14 16 -26 37 -26 46 0 10 -4 18 -10 18 -5 0 -10
-4 -10 -10z"/>
<path d="M5890 7895 c0 -8 7 -15 15 -15 9 0 12 6 9 15 -4 8 -10 15 -15 15 -5
0 -9 -7 -9 -15z"/>
<path d="M7140 7890 c0 -5 5 -10 10 -10 6 0 10 5 10 10 0 6 -4 10 -10 10 -5 0
-10 -4 -10 -10z"/>
<path d="M4475 7860 c3 -5 8 -10 11 -10 2 0 4 5 4 10 0 6 -5 10 -11 10 -5 0
-7 -4 -4 -10z"/>
<path d="M4520 7860 c0 -5 5 -10 10 -10 6 0 10 5 10 10 0 6 -4 10 -10 10 -5 0
-10 -4 -10 -10z"/>
<path d="M6893 7796 c5 -16 27 -19 27 -3 0 7 -7 14 -15 14 -9 0 -14 -5 -12
-11z"/>
<path d="M5880 7544 c0 -8 5 -12 10 -9 6 3 10 10 10 16 0 5 -4 9 -10 9 -5 0
-10 -7 -10 -16z"/>
<path d="M5820 7540 c-22 -6 -23 -8 -7 -15 12 -5 24 -2 35 9 17 17 12 18 -28
6z"/>
<path d="M5765 7530 c3 -5 8 -10 11 -10 2 0 4 5 4 10 0 6 -5 10 -11 10 -5 0
-7 -4 -4 -10z"/>
<path d="M5737 7494 c-14 -19 -15 -24 -4 -24 8 0 17 10 20 22 8 30 5 30 -16 2z"/>
<path d="M5840 7499 c0 -5 5 -9 11 -9 12 0 1 -43 -12 -48 -12 -5 -11 -32 1
-32 9 0 40 62 40 80 0 4 -9 10 -20 13 -11 3 -20 1 -20 -4z"/>
<path d="M5795 7490 c3 -5 11 -10 16 -10 6 0 7 5 4 10 -3 6 -11 10 -16 10 -6
0 -7 -4 -4 -10z"/>
<path d="M2135 7480 c-3 -5 1 -10 10 -10 9 0 13 5 10 10 -3 6 -8 10 -10 10 -2
0 -7 -4 -10 -10z"/>
<path d="M5683 7415 c0 -8 4 -12 9 -9 5 3 6 10 3 15 -9 13 -12 11 -12 -6z"/>
<path d="M7220 7413 c0 -25 34 -172 64 -282 14 -51 26 -102 26 -112 0 -10 5
-19 11 -19 12 0 149 67 162 79 4 5 -40 68 -99 142 -58 74 -118 151 -132 172
-28 42 -32 44 -32 20z"/>
<path d="M5795 7370 c-3 -5 -1 -10 4 -10 6 0 11 5 11 10 0 6 -2 10 -4 10 -3 0
-8 -4 -11 -10z"/>
<path d="M2270 7310 c0 -5 5 -10 10 -10 6 0 10 5 10 10 0 6 -4 10 -10 10 -5 0
-10 -4 -10 -10z"/>
<path d="M3816 7292 c-2 -4 4 -8 14 -8 10 0 16 4 14 8 -3 4 -9 8 -14 8 -5 0
-11 -4 -14 -8z"/>
<path d="M5710 7291 c0 -7 -4 -9 -10 -6 -5 3 -10 1 -10 -4 0 -6 4 -11 9 -11
13 0 25 20 17 27 -3 4 -6 1 -6 -6z"/>
<path d="M1049 7277 c6 -8 7 -18 3 -22 -4 -5 -1 -5 6 -1 10 6 10 11 1 22 -6 8
-14 14 -16 14 -3 0 0 -6 6 -13z"/>
<path d="M1386 7268 c3 -5 10 -6 15 -3 13 9 11 12 -6 12 -8 0 -12 -4 -9 -9z"/>
<path d="M1451 7248 c7 -13 19 -29 28 -36 15 -12 15 -13 0 -9 -13 4 -15 1 -11
-15 4 -17 1 -19 -16 -13 -17 5 -21 3 -16 -9 3 -9 11 -13 17 -9 5 3 7 2 4 -4
-4 -6 -2 -24 2 -41 7 -24 6 -32 -6 -36 -20 -8 -23 -8 -23 5 0 5 6 7 13 3 6 -4
9 -4 5 1 -11 12 -69 12 -65 0 2 -5 9 -10 15 -10 16 0 25 -12 17 -25 -6 -9 -10
-9 -17 1 -5 9 -6 4 -2 -13 4 -18 2 -28 -5 -28 -6 0 -11 -4 -11 -10 0 -18 18
-11 25 10 3 11 9 19 13 17 11 -3 128 85 142 107 10 16 5 25 -37 68 -26 27 -56
54 -66 60 -17 9 -17 7 -6 -14z"/>
<path d="M5220 7266 c0 -2 7 -7 16 -10 8 -3 12 -2 9 4 -6 10 -25 14 -25 6z"/>
<path d="M5055 7249 c-4 -6 -5 -13 -2 -16 7 -7 27 6 27 18 0 12 -17 12 -25 -2z"/>
<path d="M1395 7240 c-9 -14 14 -52 27 -44 7 4 5 10 -5 16 -9 5 -14 15 -11 23
7 17 -1 20 -11 5z"/>
<path d="M3810 7215 c-7 -8 -21 -15 -31 -15 -11 0 -19 -7 -19 -15 0 -8 5 -15
10 -15 6 0 10 5 10 10 0 6 6 10 13 10 7 0 18 9 25 20 14 24 10 26 -8 5z"/>
<path d="M3695 7200 c3 -5 8 -10 11 -10 2 0 4 5 4 10 0 6 -5 10 -11 10 -5 0
-7 -4 -4 -10z"/>
<path d="M1392 7180 c3 -8 1 -24 -4 -35 -8 -18 -8 -19 5 -3 8 10 17 15 20 11
4 -3 7 -3 7 1 0 4 -7 15 -17 24 -13 13 -15 13 -11 2z"/>
<path d="M1342 7150 c0 -14 2 -19 5 -12 2 6 2 18 0 25 -3 6 -5 1 -5 -13z"/>
<path d="M1405 7120 c-3 -6 1 -7 9 -4 18 7 21 14 7 14 -6 0 -13 -4 -16 -10z"/>
<path d="M1349 7063 c-13 -16 -12 -17 4 -4 9 7 17 15 17 17 0 8 -8 3 -21 -13z"/>
<path d="M4417 7069 c-37 -5 -79 -16 -92 -25 -14 -9 -32 -14 -40 -10 -9 3 -14
2 -11 -3 7 -11 -17 -21 -50 -21 -13 0 -24 -4 -24 -9 0 -5 -9 -13 -20 -16 -11
-3 -26 -12 -32 -19 -7 -6 -31 -25 -53 -41 -42 -32 -90 -83 -90 -97 0 -5 -6
-13 -14 -17 -7 -5 -10 -14 -7 -20 4 -6 3 -11 -2 -11 -9 0 -45 -67 -48 -90 0
-8 -9 -31 -20 -50 -10 -19 -18 -37 -19 -40 0 -3 -13 -36 -29 -75 -15 -38 -34
-86 -41 -105 -7 -19 -17 -44 -21 -55 -4 -11 -8 -22 -9 -25 0 -3 -8 -19 -17
-36 -9 -17 -18 -42 -20 -55 -2 -13 -7 -29 -10 -35 -7 -10 -24 -148 -27 -208 0
-16 -6 -35 -12 -42 -6 -7 -8 -18 -5 -23 4 -5 2 -12 -4 -16 -5 -3 -10 -12 -10
-18 0 -7 4 -6 10 3 6 9 10 10 10 3 0 -7 -8 -17 -19 -22 -10 -6 -22 -22 -25
-36 -4 -14 -11 -23 -16 -20 -6 4 -13 -1 -16 -9 -3 -8 -14 -18 -25 -21 -11 -4
-17 -11 -14 -16 4 -5 1 -9 -4 -9 -6 0 -11 -7 -11 -16 0 -26 52 -114 67 -114 8
0 12 -4 8 -9 -6 -10 88 -123 108 -130 12 -4 -27 45 -53 65 -12 10 -12 14 0 30
8 10 10 15 4 11 -7 -4 -15 0 -18 9 -9 23 -8 24 15 24 46 0 87 -68 57 -98 -8
-8 -8 -15 0 -25 7 -8 9 -16 6 -19 -3 -4 22 -29 56 -58 60 -49 244 -149 255
-138 3 3 0 17 -6 32 -10 20 -10 29 -1 38 7 7 12 26 13 42 1 18 8 -2 18 -49
l16 -80 45 -17 c25 -9 60 -17 79 -17 l33 -1 -7 46 c-3 26 -9 54 -12 63 -2 9
12 -2 31 -23 20 -22 36 -45 36 -51 0 -6 11 -22 24 -34 20 -19 32 -22 97 -19
73 3 74 4 71 28 -2 14 -16 38 -30 54 -24 25 -24 27 -5 17 12 -6 37 -29 56 -52
l35 -40 58 10 c32 6 60 14 63 19 3 4 17 8 31 9 14 1 47 11 73 22 42 18 47 24
41 43 -12 39 -11 83 4 112 13 26 15 27 24 12 5 -10 8 -26 5 -36 -3 -11 0 -18
5 -17 6 1 15 -12 20 -30 l8 -32 53 30 c80 47 84 52 65 93 -16 33 -16 34 5 29
12 -3 28 -13 34 -21 11 -14 16 -13 40 8 36 32 82 83 83 92 0 4 -6 5 -13 2 -8
-3 -24 18 -42 53 -17 32 -36 65 -43 74 -10 13 -8 18 13 27 23 11 26 8 61 -56
21 -37 39 -69 42 -72 2 -3 17 10 34 29 22 24 28 39 24 56 -5 18 -1 25 14 30
21 7 21 7 -2 47 -16 28 -39 49 -71 66 l-49 25 -96 -17 c-54 -9 -106 -16 -117
-16 -32 1 42 30 79 31 17 0 40 5 51 10 15 7 8 8 -27 6 -25 -1 -44 1 -42 4 2 3
-23 5 -56 3 -73 -3 -74 2 -26 107 29 64 35 89 41 181 7 98 6 110 -15 153 -12
25 -21 56 -21 68 2 23 2 68 0 197 -1 44 -6 78 -13 82 -8 5 -7 8 3 8 11 0 11 3
1 15 -10 12 -9 15 4 15 10 0 14 5 11 10 -4 6 -2 16 3 23 12 15 -1 112 -20 147
-21 41 -79 111 -87 106 -8 -6 -91 21 -106 34 -16 13 -155 40 -200 39 -22 -1
-71 -5 -108 -10z m218 -477 c-2 -2 -10 -5 -19 -6 -9 -1 -22 -10 -29 -20 -9
-13 -18 -15 -36 -8 -22 8 -22 9 -6 25 9 9 25 17 36 17 11 0 19 7 19 17 0 15 2
14 19 -3 10 -10 17 -20 16 -22z m55 -192 c0 -5 -2 -10 -4 -10 -3 0 -8 5 -11
10 -3 6 -1 10 4 10 6 0 11 -4 11 -10z m-205 -10 c3 -5 1 -10 -4 -10 -6 0 -11
5 -11 10 0 6 2 10 4 10 3 0 8 -4 11 -10z m-5 -150 c0 -5 -8 -10 -17 -10 -15 0
-16 2 -3 10 19 12 20 12 20 0z m217 -226 c-3 -3 -12 -4 -19 -1 -8 3 -5 6 6 6
11 1 17 -2 13 -5z m381 -204 c7 -12 10 -25 7 -30 -9 -14 -39 -12 -53 3 -7 6
-16 12 -20 13 -4 0 -16 5 -27 9 -19 9 -19 9 5 16 47 13 75 10 88 -11z m-1038
-122 c0 -2 -9 -4 -20 -5 -22 -2 -23 -1 -14 21 5 13 8 13 20 1 8 -7 14 -15 14
-17z m1000 -23 c14 -19 14 -19 -2 -6 -10 7 -18 18 -18 24 0 6 1 8 3 6 1 -2 9
-13 17 -24z m-1067 8 c-7 -3 -13 -11 -13 -19 0 -18 -14 -18 -29 -1 -14 18 -7
25 27 24 15 0 21 -2 15 -4z m1114 0 c-4 -3 1 -12 11 -19 12 -9 14 -16 6 -24
-8 -8 -15 -5 -27 13 -16 24 -13 37 6 37 6 0 7 -3 4 -7z m-1192 -23 c3 -5 0
-10 -8 -10 -8 0 -20 -7 -27 -15 -17 -21 -30 -19 -30 4 0 27 51 44 65 21z
m1112 -22 c-3 -8 -6 -5 -6 6 -1 11 2 17 5 13 3 -3 4 -12 1 -19z m-951 -2 c28
-48 50 -126 35 -126 -6 0 -11 7 -11 16 0 27 -25 9 -30 -22 -6 -28 -6 -28 -13
11 -4 22 -7 54 -7 72 0 17 -4 35 -10 38 -19 12 -10 26 13 19 12 -3 22 -7 23
-8z m-234 -48 c-7 -7 -12 -8 -12 -2 0 14 12 26 19 19 2 -3 -1 -11 -7 -17z
m1226 -6 c2 -8 -3 -9 -19 -4 -13 5 -25 14 -27 20 -2 8 3 9 19 4 13 -5 25 -14
27 -20z m-1158 14 c0 -3 -4 -8 -10 -11 -5 -3 -10 -1 -10 4 0 6 5 11 10 11 6 0
10 -2 10 -4z m28 -64 c-3 -10 1 -23 9 -30 7 -7 13 -18 13 -24 0 -7 -6 -4 -12
5 -7 9 -22 24 -33 33 -11 8 -14 12 -6 8 11 -5 13 -3 8 9 -4 12 -1 17 9 17 11
0 15 -6 12 -18z m267 -40 c-6 -16 -7 -16 -16 1 -8 13 -7 23 3 34 12 15 13 15
16 -1 2 -9 1 -25 -3 -34z m575 -126 c-6 -20 -15 -34 -20 -31 -5 3 -14 -3 -20
-12 -9 -15 -10 -14 -4 7 8 29 44 83 51 76 3 -2 0 -21 -7 -40z"/>
<path d="M1351 6974 c0 -11 3 -14 6 -6 3 7 2 16 -1 19 -3 4 -6 -2 -5 -13z"/>
<path d="M1298 6943 c7 -3 16 -2 19 1 4 3 -2 6 -13 5 -11 0 -14 -3 -6 -6z"/>
<path d="M1190 6880 c0 -5 4 -10 9 -10 6 0 13 5 16 10 3 6 -1 10 -9 10 -9 0
-16 -4 -16 -10z"/>
<path d="M1165 6860 c-3 -5 -1 -10 4 -10 6 0 11 5 11 10 0 6 -2 10 -4 10 -3 0
-8 -4 -11 -10z"/>
<path d="M1125 6840 c-3 -5 -2 -10 4 -10 5 0 13 5 16 10 3 6 2 10 -4 10 -5 0
-13 -4 -16 -10z"/>
<path d="M1080 6805 c-7 -9 -10 -18 -6 -22 3 -3 6 -1 6 5 0 6 8 12 18 14 11 2
13 6 6 11 -7 4 -17 0 -24 -8z"/>
<path d="M715 6800 c3 -5 8 -10 11 -10 2 0 4 5 4 10 0 6 -5 10 -11 10 -5 0 -7
-4 -4 -10z"/>
<path d="M896 6721 c-4 -7 -5 -15 -2 -18 9 -9 19 4 14 18 -4 11 -6 11 -12 0z"/>
<path d="M741 6694 c0 -11 3 -14 6 -6 3 7 2 16 -1 19 -3 4 -6 -2 -5 -13z"/>
<path d="M755 6659 c-4 -6 -5 -13 -2 -16 7 -7 27 6 27 18 0 12 -17 12 -25 -2z"/>
<path d="M800 6659 c0 -5 5 -7 10 -4 6 3 10 8 10 11 0 2 -4 4 -10 4 -5 0 -10
-5 -10 -11z"/>
<path d="M5290 5867 l25 -10 -23 -5 c-23 -4 -23 -4 -6 -25 10 -12 12 -16 4 -9
-19 16 -35 15 -21 -2 6 -8 23 -16 36 -18 20 -4 27 1 40 27 22 48 20 52 -32 53
-43 0 -46 -1 -23 -11z"/>
<path d="M127 5174 c-4 -4 -7 -173 -7 -376 l0 -368 25 0 c19 0 25 -5 25 -22 0
-42 15 -52 76 -54 32 -1 65 1 75 3 28 8 39 58 39 184 0 129 4 149 29 149 22 0
91 -67 91 -89 0 -6 8 -18 18 -28 10 -10 47 -59 81 -109 71 -105 90 -117 180
-112 97 4 93 -7 93 300 -1 145 -4 323 -8 396 l-7 132 -108 0 -109 0 -2 -201
-3 -201 -136 198 -136 199 -104 3 c-58 1 -108 -1 -112 -4z"/>
<path d="M5190 4805 c0 -368 0 -375 20 -375 14 0 20 -7 20 -21 0 -12 10 -30
23 -41 18 -16 32 -19 77 -15 52 5 80 23 80 51 1 213 5 253 30 289 26 38 52 50
88 40 21 -5 22 -9 22 -154 0 -140 1 -149 19 -149 13 0 21 -9 26 -31 8 -34 29
-45 92 -47 27 -1 49 5 64 17 23 18 23 24 24 167 1 266 -19 363 -83 412 -32 24
-44 27 -117 27 -72 0 -86 -3 -122 -27 l-40 -26 -7 81 c-3 45 -6 103 -6 130 l0
47 -105 0 -105 0 0 -375z"/>
<path d="M7517 5173 c-4 -3 -7 -59 -7 -123 l0 -117 -47 23 c-32 17 -63 24
-102 24 -150 -1 -239 -118 -229 -301 8 -128 96 -290 175 -320 42 -16 113 -12
174 9 50 18 58 18 90 5 19 -8 54 -17 79 -19 37 -4 50 0 69 17 l23 21 -4 382
c-3 210 -8 388 -12 394 -8 13 -197 18 -209 5z m-19 -435 c6 -6 12 -32 12 -60
0 -41 -5 -54 -29 -79 -33 -33 -50 -35 -90 -14 -33 16 -43 44 -31 84 21 74 89
108 138 69z"/>
<path d="M1085 4971 c-68 -17 -124 -61 -144 -114 -16 -42 -15 -44 29 -51 37
-6 40 -8 29 -27 -6 -12 -8 -31 -5 -43 4 -17 -2 -28 -25 -45 -34 -25 -59 -75
-59 -118 0 -27 55 -148 81 -179 40 -48 189 -66 256 -31 37 20 95 22 126 5 34
-18 109 -19 135 -2 17 12 23 22 19 40 -2 13 0 24 5 24 5 0 5 7 0 18 -6 9 -10
72 -11 139 -3 270 -32 345 -145 378 -52 16 -235 19 -291 6z m215 -300 c0 -14
-84 -43 -111 -39 -18 3 -8 9 41 25 36 12 66 22 68 22 1 1 2 -3 2 -8z m-54
-116 c-11 -8 -31 -15 -45 -14 -26 1 -26 1 4 14 42 19 66 19 41 0z m51 -95
c-14 -11 -28 -20 -32 -20 -10 0 38 39 49 40 5 0 -3 -9 -17 -20z"/>
<path d="M2307 4966 c-54 -20 -112 -62 -139 -101 -21 -31 -24 -33 -40 -19 -15
15 -15 19 3 61 10 24 19 49 19 54 0 5 -47 9 -104 9 l-104 0 -54 -166 -53 -166
-50 164 -50 163 -108 3 c-59 1 -107 -1 -107 -6 0 -18 208 -523 219 -532 3 -3
13 -18 21 -34 9 -18 27 -33 44 -37 36 -10 116 -1 135 14 14 12 44 73 86 177
14 36 37 88 50 115 13 28 27 59 31 70 5 14 10 -2 14 -51 7 -84 69 -224 122
-273 81 -76 308 -91 406 -26 49 32 62 63 37 81 -17 12 -16 16 14 51 64 77 81
96 84 92 1 -2 19 -39 40 -81 70 -143 133 -182 292 -181 112 0 172 17 217 60
32 30 35 48 13 61 -14 7 -10 18 25 70 45 67 45 64 32 173 -22 183 -122 269
-313 269 -129 0 -219 -42 -274 -130 -28 -44 -49 -149 -40 -199 6 -35 6 -35 -8
-11 -8 15 -17 48 -20 75 -17 123 -66 198 -156 238 -59 27 -226 34 -284 13z
m170 -212 c-3 -3 -12 -4 -19 -1 -8 3 -5 6 6 6 11 1 17 -2 13 -5z m656 -1 c-7
-2 -19 -2 -25 0 -7 3 -2 5 12 5 14 0 19 -2 13 -5z m-663 -203 c-20 -13 -57
-13 -65 0 -4 6 11 10 37 10 31 0 39 -3 28 -10z m642 -1 c-21 -6 -39 -6 -50 0
-13 8 -5 10 33 10 48 -1 49 -1 17 -10z"/>
<path d="M3750 4964 c-19 -8 -50 -29 -67 -46 l-33 -32 0 42 0 42 -100 0 -100
0 0 -269 0 -270 23 -3 c14 -2 21 -9 19 -20 -5 -30 46 -58 100 -57 81 3 86 13
90 199 3 123 4 125 32 154 31 30 69 37 89 17 8 -8 13 -62 15 -151 4 -130 5
-140 23 -140 13 0 19 -7 19 -23 0 -44 58 -68 128 -52 47 10 53 33 53 195 -2
209 -12 297 -43 352 -40 70 -160 100 -248 62z"/>
<path d="M5986 4969 c-56 -13 -90 -37 -120 -82 -37 -58 -34 -74 15 -82 30 -5
38 -10 30 -18 -14 -14 -14 -54 0 -63 6 -3 -2 -14 -20 -25 -77 -46 -91 -130
-38 -226 45 -82 57 -97 96 -113 50 -20 171 -16 226 9 45 20 46 20 106 1 74
-24 102 -25 134 -4 23 15 23 18 19 122 -9 228 -15 318 -25 355 -15 57 -62 104
-122 122 -56 17 -236 19 -301 4z m218 -309 c-10 -10 -146 -41 -152 -35 -2 2
31 15 75 28 76 25 96 26 77 7z m-48 -105 c-19 -14 -56 -21 -56 -10 0 7 41 24
60 24 11 0 10 -3 -4 -14z m59 -85 c-3 -5 -16 -15 -28 -21 -19 -9 -19 -8 3 10
28 23 34 26 25 11z"/>
<path d="M6795 4967 c-16 -8 -45 -26 -62 -41 l-33 -28 0 36 0 36 -100 0 -100
0 0 -270 c0 -258 1 -270 19 -270 12 0 21 -9 25 -26 12 -46 31 -57 93 -51 30 3
62 11 69 19 9 9 14 50 15 138 1 69 6 136 11 150 17 46 48 70 90 70 l38 0 0
-150 c0 -141 1 -150 19 -150 13 0 23 -11 31 -35 9 -28 18 -35 43 -39 18 -3 43
-4 57 -2 14 2 32 4 41 5 9 0 20 9 24 19 13 30 13 317 0 405 -22 147 -62 190
-180 195 -43 1 -81 -3 -100 -11z"/>
<path d="M7955 4971 c-41 -11 -87 -35 -107 -58 -15 -16 -48 -83 -48 -96 0 -3
18 -7 39 -11 40 -6 40 -6 29 -37 -7 -22 -7 -34 1 -42 8 -8 3 -15 -19 -28 -37
-23 -62 -71 -62 -123 -1 -48 59 -171 97 -199 30 -22 114 -38 158 -31 54 9 121
27 133 35 5 5 38 -1 73 -11 77 -25 103 -25 130 -2 24 20 24 22 17 242 -9 240
-28 300 -108 342 -37 19 -61 22 -173 24 -71 2 -143 0 -160 -5z m225 -299 c0
-13 -48 -32 -99 -39 -59 -8 -49 4 26 27 70 22 73 22 73 12z m-45 -111 c-7 -12
-64 -25 -72 -17 -7 7 35 24 60 25 10 1 16 -3 12 -8z m36 -101 c-13 -11 -28
-20 -33 -20 -6 0 0 9 13 20 13 10 29 19 34 19 6 0 -1 -9 -14 -19z"/>
<path d="M8735 4969 c-11 -6 -30 -23 -42 -38 l-23 -26 0 33 0 32 -100 0 -100
0 0 -270 c0 -263 0 -270 20 -270 14 0 20 -7 20 -24 0 -35 25 -50 86 -52 87 -3
92 6 97 163 4 120 7 136 28 168 23 34 47 48 99 59 41 9 79 93 50 111 -6 4 -4
19 5 42 8 19 15 41 15 48 0 29 -113 46 -155 24z"/>
<path d="M32 3987 c3 -68 8 -129 12 -135 4 -7 35 -12 78 -12 66 0 72 2 104 34
30 30 34 40 34 85 0 59 -18 100 -56 130 -22 17 -41 21 -102 21 l-75 0 5 -123z
m158 63 c15 -15 20 -33 20 -70 0 -67 -30 -100 -90 -100 l-40 0 0 95 0 95 45 0
c32 0 51 -6 65 -20z"/>
<path d="M842 3978 c3 -129 4 -133 26 -136 22 -3 22 -2 22 120 0 124 -6 148
-37 148 -11 0 -13 -28 -11 -132z"/>
<path d="M2159 4083 c-75 -191 -87 -228 -73 -236 23 -13 37 -4 49 34 11 32 15
34 62 37 l50 3 15 -41 c12 -29 22 -40 37 -40 12 0 21 3 21 7 0 11 -93 237
-103 251 -17 21 -47 14 -58 -15z m56 -79 c19 -46 20 -44 -15 -44 -16 0 -30 4
-30 9 0 12 21 71 26 71 2 0 11 -16 19 -36z"/>
<path d="M3380 4092 c0 -18 18 -32 42 -32 5 0 8 10 6 23 -4 29 -48 38 -48 9z"/>
<path d="M3989 4095 c-32 -17 -59 -71 -59 -115 0 -114 131 -184 211 -112 24
22 30 33 25 50 -8 24 -46 31 -46 8 0 -21 -39 -46 -72 -46 -49 0 -76 49 -64
115 14 71 85 99 128 50 22 -25 58 -34 58 -14 0 6 -15 26 -34 45 -28 28 -41 34
-77 34 -24 -1 -56 -7 -70 -15z"/>
<path d="M4942 3978 c3 -129 4 -133 26 -136 22 -3 22 -1 22 94 0 88 1 96 15
78 9 -12 14 -43 15 -86 0 -56 3 -69 19 -78 31 -16 64 -13 57 6 -3 9 -6 18 -6
20 0 2 -7 4 -15 4 -12 0 -15 13 -15 60 0 53 2 60 20 60 25 0 26 15 2 32 -10 7
-22 25 -25 40 -9 34 -37 27 -37 -8 0 -15 -6 -24 -15 -24 -9 0 -15 9 -15 23 0
26 -17 47 -37 47 -11 0 -13 -28 -11 -132z"/>
<path d="M6128 4094 c-36 -19 -58 -63 -58 -116 0 -87 64 -144 151 -136 28 3
56 0 70 -8 13 -7 27 -13 32 -14 13 0 7 29 -8 38 -14 7 -14 12 0 45 20 49 19
90 -4 135 -34 66 -118 92 -183 56z m127 -49 c28 -27 33 -76 14 -119 -10 -21
-15 -23 -31 -15 -28 15 -54 4 -38 -16 21 -25 -30 -19 -57 7 -39 37 -27 133 21
156 35 18 66 13 91 -13z"/>
<path d="M6730 3982 c0 -132 3 -142 41 -142 6 0 8 54 7 133 -3 128 -4 132 -25
135 -23 3 -23 2 -23 -126z"/>
<path d="M6812 4088 c2 -15 11 -24 26 -26 24 -4 30 16 10 36 -20 20 -40 14
-36 -10z"/>
<path d="M7268 3984 c-27 -69 -45 -130 -42 -135 18 -29 64 12 64 56 0 11 13
15 54 15 50 0 54 -2 61 -27 4 -16 11 -34 17 -40 11 -14 49 -18 47 -5 0 4 -24
63 -52 132 -46 110 -55 125 -77 128 -23 2 -28 -6 -72 -124z m97 13 l15 -37
-34 0 -34 0 15 40 c9 22 18 39 19 37 2 -2 10 -20 19 -40z"/>
<path d="M2543 4093 c-7 -3 -13 -16 -13 -29 0 -15 -6 -24 -16 -24 -15 0 -15
-2 0 -25 11 -16 16 -46 16 -89 0 -54 3 -67 19 -76 45 -24 83 -4 41 22 -16 10
-20 24 -20 70 0 51 2 58 20 58 11 0 20 4 20 10 0 5 -9 15 -20 22 -11 7 -20 20
-20 28 0 22 -13 38 -27 33z"/>
<path d="M3313 4093 c-7 -3 -13 -16 -13 -29 0 -15 -6 -24 -15 -24 -8 0 -15 -6
-15 -14 0 -8 7 -16 15 -20 11 -4 15 -22 15 -74 0 -45 5 -73 13 -80 7 -6 36
-10 65 -10 l53 1 -3 96 c-3 106 4 96 -70 100 -10 1 -18 9 -18 19 0 24 -13 40
-27 35z m66 -165 c0 -40 -3 -67 -6 -60 -2 6 -11 12 -19 12 -10 0 -14 15 -14
60 0 53 2 60 20 60 18 0 20 -6 19 -72z"/>
<path d="M5513 4093 c-7 -3 -13 -15 -13 -28 0 -13 -6 -25 -12 -28 -10 -3 -10
-9 0 -26 6 -11 12 -50 12 -86 0 -53 3 -66 19 -75 45 -24 83 -4 41 22 -16 10
-20 24 -20 70 0 51 2 58 20 58 11 0 20 4 20 10 0 5 -9 15 -20 22 -11 7 -20 20
-20 28 0 22 -13 38 -27 33z"/>
<path d="M6903 4093 c-7 -3 -13 -16 -13 -29 0 -15 -6 -24 -16 -24 -15 0 -15
-2 0 -25 11 -16 16 -46 16 -89 0 -54 3 -67 19 -76 31 -16 64 -13 57 6 -3 9 -6
18 -6 20 0 2 -7 4 -15 4 -12 0 -15 13 -15 61 0 56 2 60 21 57 17 -2 28 -20 48
-73 31 -80 30 -102 -5 -111 -29 -7 -32 -30 -4 -39 43 -14 57 3 100 113 49 127
52 146 25 150 -16 2 -24 -9 -44 -65 -14 -37 -27 -61 -29 -53 -3 8 -13 39 -24
68 -18 49 -21 52 -54 52 -26 0 -34 4 -34 18 0 24 -13 40 -27 35z"/>
<path d="M295 4015 c-19 -19 -25 -35 -25 -70 0 -63 40 -105 98 -105 47 0 89
28 79 53 -8 21 -43 22 -51 2 -11 -30 -76 -12 -76 22 0 9 19 13 70 13 l70 0 -6
28 c-16 73 -110 107 -159 57z m105 -30 c11 -13 6 -15 -36 -15 -45 1 -48 2 -30
15 25 19 50 19 66 0z"/>
<path d="M460 4034 c0 -4 15 -47 33 -95 31 -85 56 -116 77 -92 14 16 70 175
64 184 -3 5 -14 9 -24 9 -14 0 -24 -16 -41 -67 l-22 -68 -18 54 c-10 29 -24
60 -30 67 -12 14 -39 19 -39 8z"/>
<path d="M665 4015 c-19 -19 -25 -35 -25 -70 0 -63 39 -105 99 -105 43 0 86
30 78 53 -6 19 -35 20 -53 2 -24 -23 -68 -16 -72 13 -3 21 0 22 62 22 64 0 66
1 66 26 0 15 -12 38 -29 55 -38 38 -91 40 -126 4z m103 -32 c2 -9 -9 -13 -38
-13 -37 0 -41 2 -30 16 15 17 61 15 68 -3z"/>
<path d="M933 4025 c-25 -17 -39 -71 -29 -111 27 -105 186 -96 186 11 0 68
-41 114 -100 115 -20 0 -45 -7 -57 -15z m95 -37 c17 -17 15 -74 -4 -92 -34
-34 -74 -12 -74 40 0 52 47 83 78 52z"/>
<path d="M1100 3910 c0 -107 3 -129 16 -134 29 -11 34 -6 34 33 l0 39 39 -5
c33 -5 44 -1 65 20 30 30 35 81 11 127 -20 40 -41 48 -108 48 l-57 -1 0 -127z
m114 84 c19 -7 22 -84 4 -102 -17 -17 -55 -15 -62 4 -11 29 -6 67 11 86 18 20
23 21 47 12z"/>
<path d="M1315 4015 c-20 -19 -25 -34 -25 -74 0 -43 4 -53 31 -75 39 -33 99
-36 130 -5 11 11 18 26 16 32 -6 19 -35 20 -53 2 -24 -23 -68 -16 -72 13 -3
21 0 22 62 22 64 0 66 1 66 26 0 15 -12 38 -29 55 -38 38 -91 40 -126 4z m103
-32 c2 -9 -9 -13 -38 -13 -37 0 -41 2 -30 16 15 17 61 15 68 -3z"/>
<path d="M1492 3941 c3 -90 4 -96 25 -99 21 -3 22 1 25 75 3 77 3 78 31 81 20
3 27 8 25 20 -3 13 -15 17 -56 18 l-53 2 3 -97z"/>
<path d="M2329 4031 c0 -6 0 -36 0 -66 0 -84 0 -84 21 -105 16 -16 32 -19 80
-18 l60 2 0 93 c0 75 -3 95 -15 100 -22 8 -23 6 -28 -64 -4 -69 -19 -96 -51
-91 -19 3 -22 11 -26 78 -4 61 -8 75 -22 78 -10 2 -18 -1 -19 -7z"/>
<path d="M2633 4018 c-63 -69 -21 -178 69 -178 56 0 88 34 88 95 0 38 -5 52
-29 76 -38 37 -97 41 -128 7z m96 -27 c16 -11 17 -76 1 -96 -15 -18 -51 -20
-68 -3 -17 17 -15 59 4 86 16 23 39 28 63 13z"/>
<path d="M2808 4006 c-1 -17 -1 -60 2 -96 4 -51 9 -66 23 -68 15 -3 17 5 17
56 0 66 24 110 53 99 12 -5 17 -23 19 -79 3 -67 5 -73 26 -76 21 -3 22 0 22
66 0 72 14 100 44 89 11 -4 16 -26 18 -79 3 -68 5 -73 27 -76 24 -4 24 -3 19
77 -3 59 -10 86 -23 101 -20 22 -74 27 -93 8 -8 -8 -15 -8 -25 0 -7 6 -39 11
-69 10 -55 -1 -56 -2 -60 -32z"/>
<path d="M3122 4024 c-12 -8 -22 -22 -22 -30 0 -23 29 -28 50 -9 20 18 61 17
67 -2 3 -7 -11 -14 -34 -18 -85 -13 -118 -60 -74 -104 18 -18 32 -21 92 -19
l71 2 -4 79 c-3 68 -6 82 -27 98 -28 23 -88 25 -119 3z m98 -108 c0 -14 -35
-36 -56 -36 -25 0 -34 24 -11 33 15 7 67 8 67 3z"/>
<path d="M3469 4014 c-58 -62 -11 -174 74 -174 54 0 75 14 87 60 20 73 -28
140 -100 140 -26 0 -43 -7 -61 -26z m113 -46 c13 -39 -9 -82 -45 -86 -21 -3
-29 2 -37 23 -6 15 -7 37 -4 51 13 49 71 58 86 12z"/>
<path d="M3652 3940 c3 -90 4 -95 26 -98 21 -3 22 0 22 66 0 73 12 97 47 90
15 -3 19 -16 23 -78 5 -69 7 -75 29 -78 23 -4 23 -3 19 78 -4 104 -19 120
-109 117 l-60 -1 3 -96z"/>
<path d="M4205 4015 c-37 -37 -35 -106 4 -146 49 -49 126 -38 151 20 41 100
-82 200 -155 126z m103 -27 c19 -19 14 -73 -7 -92 -11 -10 -30 -16 -43 -14
-20 3 -23 10 -26 48 -3 33 1 47 14 57 22 16 46 17 62 1z"/>
<path d="M4382 3940 c3 -90 4 -95 26 -98 21 -3 22 0 22 67 0 61 3 72 21 81 38
21 48 6 51 -72 3 -67 5 -73 26 -76 21 -3 22 0 22 73 0 67 -3 79 -24 100 -21
21 -33 24 -85 22 l-62 -1 3 -96z"/>
<path d="M4586 4024 c-37 -36 -12 -81 57 -104 21 -6 36 -17 34 -23 -6 -18 -52
-20 -67 -3 -7 9 -18 16 -26 16 -25 0 -25 -20 0 -45 19 -19 35 -25 69 -25 103
0 100 102 -4 125 -17 4 -28 12 -26 18 6 18 42 20 57 2 16 -19 40 -20 40 0 0
45 -99 74 -134 39z"/>
<path d="M4749 4026 c0 -9 0 -36 0 -61 0 -79 1 -85 21 -105 16 -16 32 -19 80
-18 l60 2 0 93 c0 75 -3 95 -15 100 -22 8 -24 3 -26 -58 -2 -65 -21 -102 -52
-97 -20 3 -22 10 -27 78 -4 61 -8 75 -22 78 -11 2 -18 -3 -19 -12z"/>
<path d="M5120 4020 c-25 -25 -25 -37 1 -45 13 -4 27 -1 39 10 20 18 61 17 67
-2 3 -7 -11 -14 -34 -18 -62 -10 -88 -27 -91 -62 -5 -46 25 -62 111 -60 51 1
66 5 62 15 -3 8 -5 43 -5 78 0 81 -19 104 -85 104 -32 0 -51 -6 -65 -20z m100
-108 c0 -15 -24 -32 -47 -32 -24 0 -32 25 -10 33 20 9 57 8 57 -1z"/>
<path d="M5302 3941 c3 -91 4 -96 26 -99 21 -3 22 0 22 66 0 73 12 97 47 90
15 -3 19 -16 23 -78 5 -68 7 -75 28 -78 21 -3 22 0 22 63 0 71 -18 120 -47
129 -10 2 -42 4 -71 3 l-53 -1 3 -95z"/>
<path d="M6350 3962 c0 -103 16 -121 108 -120 l62 1 0 86 c0 86 -8 111 -37
111 -9 0 -13 -18 -13 -64 0 -69 -14 -96 -51 -96 -17 0 -19 8 -19 68 0 67 -10
92 -37 92 -10 0 -13 -21 -13 -78z"/>
<path d="M6562 4024 c-12 -8 -22 -22 -22 -30 0 -23 29 -28 50 -9 20 18 61 17
67 -2 3 -7 -8 -15 -24 -18 -78 -16 -88 -21 -97 -48 -8 -22 -6 -31 14 -52 21
-22 30 -25 92 -23 l68 2 0 74 c0 64 -3 76 -25 97 -29 29 -88 34 -123 9z m98
-114 c0 -13 -34 -30 -59 -30 -24 0 -27 10 -9 28 14 14 68 16 68 2z"/>
<path d="M6812 3943 c3 -93 4 -98 26 -101 21 -3 22 -1 22 91 0 77 -3 96 -16
101 -32 12 -35 5 -32 -91z"/>
<path d="M7486 4024 c-37 -36 -12 -81 57 -104 21 -6 36 -17 34 -23 -6 -18 -52
-20 -67 -3 -7 9 -18 16 -26 16 -25 0 -25 -20 0 -45 19 -19 35 -25 69 -25 103
0 100 102 -3 125 -40 9 -47 23 -15 31 17 4 32 1 44 -10 22 -20 41 -21 41 -1 0
45 -99 74 -134 39z"/>
<path d="M7657 4022 c-37 -41 -13 -81 60 -103 34 -10 41 -15 32 -26 -15 -18
-54 -17 -69 2 -15 19 -40 20 -40 2 0 -48 108 -77 143 -39 37 40 14 83 -54 103
-22 7 -38 17 -36 23 6 18 43 18 57 1 7 -8 21 -15 31 -15 18 0 19 2 5 29 -9 16
-23 31 -31 35 -32 12 -82 6 -98 -12z"/>
<path d="M7820 3962 c0 -103 16 -121 108 -120 l62 1 0 86 c0 86 -8 111 -37
111 -9 0 -13 -18 -13 -64 0 -69 -14 -96 -51 -96 -17 0 -19 8 -19 68 0 67 -10
92 -37 92 -10 0 -13 -21 -13 -78z"/>
<path d="M8012 3941 c3 -90 4 -96 25 -99 21 -3 22 1 25 69 2 54 7 74 20 83 13
8 21 6 36 -7 23 -21 39 -22 58 -2 20 20 64 20 64 0 0 -8 -11 -17 -25 -20 -14
-3 -36 -7 -50 -10 -14 -3 -32 -17 -41 -31 -16 -24 -16 -27 3 -52 19 -25 26
-27 94 -28 l74 -1 -3 76 c-4 93 -24 121 -84 121 -22 0 -48 -5 -59 -11 -13 -7
-24 -7 -32 -1 -7 6 -34 10 -60 10 l-48 -1 3 -96z m228 -29 c0 -15 -24 -32 -46
-32 -30 0 -39 16 -17 29 21 12 63 14 63 3z"/>
<path d="M8318 3975 c-4 -86 3 -129 25 -133 15 -3 17 5 17 55 0 64 19 103 49
103 23 0 27 -10 30 -85 3 -67 6 -75 27 -75 11 0 14 17 14 80 0 104 -13 120
-99 118 l-59 -2 -4 -61z"/>
<path d="M8525 4015 c-37 -37 -35 -106 4 -146 40 -39 100 -41 129 -4 l20 26
28 -26 c35 -32 102 -35 129 -5 19 21 14 50 -8 50 -8 0 -20 -7 -27 -15 -23 -28
-80 -13 -80 22 0 9 19 13 70 13 78 0 87 11 53 60 -26 39 -45 49 -85 50 -28 0
-42 -6 -59 -27 l-23 -28 -27 28 c-36 36 -90 37 -124 2z m105 -30 c7 -8 19 -15
26 -15 9 0 14 -11 14 -30 0 -23 -4 -28 -16 -23 -9 3 -21 -3 -31 -16 -10 -15
-23 -21 -41 -19 -24 3 -27 8 -30 44 -5 62 45 99 78 59z m170 0 c11 -13 7 -15
-29 -15 -39 0 -55 13 -28 23 23 10 45 7 57 -8z"/>
<path d="M1802 4008 c-17 -17 -15 -54 4 -73 20 -20 63 -16 78 8 26 41 -47 100
-82 65z"/>
<path d="M5782 4008 c-18 -18 -15 -53 6 -71 35 -32 82 -15 82 28 0 43 -60 71
-88 43z"/>
<path d="M6645 3761 c-6 -5 -46 -28 -90 -51 -116 -61 -142 -77 -225 -140 -41
-31 -91 -66 -111 -78 -41 -25 -204 -194 -224 -232 -7 -14 -29 -49 -48 -78 -19
-30 -38 -73 -42 -97 -3 -25 -10 -47 -15 -50 -11 -7 -22 -76 -21 -123 1 -20 2
-46 2 -57 1 -11 3 -15 5 -9 3 6 16 9 29 6 32 -6 35 -47 5 -57 -18 -6 -20 -12
-15 -61 4 -32 2 -60 -4 -68 -14 -16 12 -137 39 -183 12 -20 20 -37 18 -38 -16
-14 -133 -85 -141 -85 -5 0 -38 28 -74 63 -54 52 -71 62 -101 63 -20 1 -47 5
-59 9 l-22 7 24 47 c74 146 73 326 -1 480 -35 72 -150 187 -225 224 -151 75
-315 77 -469 4 -88 -41 -196 -149 -237 -237 -72 -153 -71 -316 2 -467 33 -66
118 -160 185 -203 l49 -31 3 -81 c2 -44 -1 -82 -5 -85 -5 -3 -6 -17 -3 -31 4
-15 1 -54 -5 -87 -24 -139 -27 -126 40 -164 56 -32 191 -153 191 -173 0 -13
-41 -9 -124 12 -43 12 -80 19 -83 16 -7 -7 117 -45 170 -52 36 -5 52 -13 67
-34 11 -16 20 -34 20 -42 0 -8 4 -18 9 -24 16 -18 33 -110 32 -178 -1 -72 -8
-95 -17 -59 -6 20 -25 25 -40 10 -12 -12 -62 -8 -67 6 -4 9 -6 9 -6 0 -1 -7
-6 -13 -12 -13 -6 0 -9 7 -6 15 8 18 -11 31 -25 17 -7 -7 -2 -19 16 -37 14
-14 26 -27 26 -28 0 -2 -15 -1 -34 1 -18 2 -37 -1 -40 -7 -4 -5 -14 -7 -22 -4
-13 5 -13 8 -2 15 9 7 7 8 -9 5 -17 -4 -24 1 -32 22 l-9 26 -1 -26 c-1 -20 14
-38 62 -80 34 -29 64 -56 67 -59 43 -46 146 -115 226 -153 129 -61 183 -75
322 -83 61 -4 112 -9 112 -11 0 -2 -15 -17 -32 -33 -35 -33 -33 -32 -225 -16
-20 1 -20 2 -28 -179 -4 -71 -8 -140 -11 -152 -5 -26 -24 -31 -24 -7 0 21 -54
65 -106 86 l-42 17 -5 -28 c-3 -16 -13 -36 -22 -44 -25 -26 -17 -49 40 -110
30 -33 55 -63 55 -67 0 -5 18 -28 40 -52 22 -24 40 -48 40 -54 0 -11 52 -86
88 -124 14 -16 21 -33 17 -46 -4 -20 -2 -21 39 -13 188 35 580 174 838 297
363 173 888 520 888 586 0 16 -2 18 -9 7 -5 -7 -14 -10 -20 -7 -10 7 -23 10
-80 22 -14 3 -28 7 -32 10 -10 6 -23 -15 -27 -46 -2 -13 -8 -30 -13 -36 -6 -7
-11 -31 -12 -53 -1 -34 -5 -41 -22 -41 -32 0 -141 -36 -178 -59 -18 -11 -53
-23 -77 -26 -25 -4 -52 -9 -60 -12 -8 -4 -17 -7 -20 -8 -18 -6 -88 -37 -100
-44 -16 -9 -221 82 -504 224 -177 89 -172 85 -147 126 29 47 27 56 -16 69 -36
12 -133 59 -143 70 -3 3 -28 20 -56 38 -118 74 -264 255 -325 401 -48 115 -72
260 -66 396 5 98 35 243 62 294 12 24 90 101 102 101 3 0 -1 -10 -9 -22 -22
-36 -59 -126 -81 -203 -18 -58 -21 -96 -21 -225 0 -148 2 -159 33 -250 36
-106 93 -217 145 -286 19 -25 36 -48 38 -52 4 -8 68 -65 122 -107 40 -32 110
-73 219 -127 28 -14 57 0 57 26 0 13 9 44 20 69 26 57 40 193 39 377 0 153 -5
188 -37 285 -11 33 -28 84 -37 114 -16 52 -34 83 -129 229 -23 34 -41 65 -41
68 0 13 150 92 160 84 6 -4 37 -14 70 -21 33 -7 84 -28 114 -47 99 -63 151
-77 286 -76 88 0 132 5 164 17 24 10 45 16 46 15 2 -2 -9 -43 -23 -91 l-25
-89 224 -224 c123 -123 229 -224 234 -224 29 0 68 183 68 320 1 144 -4 163
-50 191 -21 13 -40 25 -43 28 -6 7 -36 22 -184 91 l-110 50 61 63 c115 117
159 233 151 395 -6 112 -29 181 -86 264 -34 47 -40 65 -51 148 -14 109 -30
178 -42 186 -5 3 -9 14 -9 24 0 25 -41 151 -68 210 -12 25 -25 60 -29 79 -9
36 -22 47 -38 32z m-1380 -502 c173 -53 308 -214 336 -402 13 -88 3 -163 -35
-258 -21 -51 -105 -173 -114 -164 -4 3 43 91 59 111 13 16 1 42 -22 49 -15 5
-18 12 -13 27 5 17 -10 36 -74 97 -56 53 -82 86 -87 108 -30 149 -241 205
-352 94 -39 -38 -63 -94 -63 -146 0 -26 -2 -27 -35 -22 -39 6 -49 -3 -60 -64
-5 -26 0 -57 19 -111 24 -74 56 -210 50 -217 -6 -7 -73 41 -113 82 -101 105
-143 208 -143 352 0 104 22 180 77 262 129 194 345 271 570 202z m1636 -265
c90 -198 36 -438 -130 -580 -32 -28 -47 -35 -66 -30 -21 5 -25 3 -25 -14 0
-48 -183 -89 -305 -70 -65 10 -186 58 -198 77 -4 6 22 13 66 16 39 4 73 11 75
16 2 5 9 8 15 5 19 -7 166 68 215 110 24 20 48 36 53 36 13 0 91 87 111 124
29 54 24 68 -37 96 -38 16 -54 29 -50 38 3 7 5 18 5 23 0 11 76 -25 102 -48
23 -21 46 -10 54 24 4 15 15 42 24 58 19 33 40 119 40 166 0 44 17 28 51 -47z
m-536 -84 c3 -5 19 -7 36 -3 24 5 28 3 23 -11 -4 -10 -1 -16 7 -16 7 0 9 -3 6
-7 -4 -3 -16 2 -28 13 -11 10 -19 13 -17 6 2 -9 -32 -13 -137 -16 -147 -4
-181 -8 -247 -32 -50 -18 -48 -18 -48 6 0 14 11 22 43 30 23 6 58 16 77 21 54
14 78 16 182 18 53 0 100 -3 103 -9z m193 -57 c48 -52 18 -37 -43 20 -27 27
-28 28 -5 16 14 -6 35 -23 48 -36z m-1338 27 c0 -5 -9 -10 -21 -10 -11 0 -17
5 -14 10 3 6 13 10 21 10 8 0 14 -4 14 -10z m-105 -70 c-10 -16 -82 -50 -105
-50 -31 0 -22 34 10 37 19 2 73 14 98 22 2 1 0 -4 -3 -9z m890 -70 c21 -22 37
-40 34 -40 -3 0 -23 18 -44 40 -21 22 -37 40 -34 40 3 0 23 -18 44 -40z m-900
-1420 c3 -6 -1 -7 -9 -4 -18 7 -21 14 -7 14 6 0 13 -4 16 -10z m878 -373 c40
-24 162 -87 272 -141 110 -53 211 -103 224 -109 14 -7 26 -18 29 -26 3 -8 0
-11 -5 -8 -5 3 -22 -1 -38 -9 -27 -14 -31 -13 -55 6 -65 53 -106 74 -211 110
-63 22 -121 40 -130 40 -9 0 -45 9 -79 20 -34 11 -86 20 -116 20 -29 0 -65 5
-81 12 -15 6 -31 11 -34 10 -4 -1 -15 8 -24 18 -17 19 -17 20 0 20 10 0 15 5
12 13 -3 8 -2 19 1 24 9 14 133 52 150 47 7 -2 45 -23 85 -47z m1023 -134
c-10 -10 -19 5 -10 18 6 11 8 11 12 0 2 -7 1 -15 -2 -18z m-316 -103 c0 -5 -2
-10 -4 -10 -3 0 -8 5 -11 10 -3 6 -1 10 4 10 6 0 11 -4 11 -10z m-1320 -203
c0 -5 -4 -5 -10 -2 -5 3 -10 14 -10 23 0 15 2 15 10 2 5 -8 10 -19 10 -23z"/>
<path d="M2936 3483 c-20 -25 -36 -49 -36 -52 0 -5 75 -101 135 -173 l23 -27
88 46 c49 25 89 49 89 53 0 15 -170 161 -209 181 -22 10 -43 19 -47 19 -3 0
-23 -21 -43 -47z"/>
<path d="M855 3390 c-5 -9 -2 -47 11 -106 3 -17 -7 -29 -46 -54 -69 -44 -156
-143 -188 -213 -24 -52 -30 -58 -52 -53 -14 3 -45 9 -70 14 -25 4 -67 21 -93
36 -56 33 -72 28 -35 -12 69 -73 198 -246 198 -265 0 -12 7 -46 15 -76 l14
-53 -25 23 c-13 12 -24 26 -24 30 0 10 -240 316 -277 355 -7 7 -13 17 -13 22
0 11 -30 25 -37 18 -3 -2 0 -13 6 -24 6 -11 8 -22 6 -24 -5 -5 12 -51 45 -123
28 -61 53 -119 55 -131 6 -25 73 -171 146 -314 119 -236 290 -510 429 -689
l73 -95 13 37 c19 55 96 212 105 215 18 7 7 48 -21 82 -16 19 -59 73 -95 120
-36 47 -80 102 -98 123 -36 45 -80 107 -74 107 2 0 33 -13 68 -29 46 -21 72
-41 94 -71 17 -23 44 -59 62 -81 17 -21 34 -44 36 -51 4 -10 8 -9 17 2 10 13
11 12 6 -4 -4 -12 1 -26 14 -38 22 -20 30 -12 28 27 -1 11 -1 54 0 96 l2 77
35 6 c29 6 43 2 79 -24 25 -16 48 -30 53 -30 4 0 19 -9 33 -20 30 -23 44 -25
36 -5 -13 34 34 133 88 186 104 100 310 74 399 -50 32 -45 64 -152 51 -173
-14 -23 7 -55 45 -68 34 -11 45 -10 87 5 110 41 155 67 213 123 52 52 64 58
91 54 30 -4 32 -7 26 -36 -8 -38 -58 -136 -70 -136 -4 0 -24 14 -44 31 -27 24
-37 28 -43 17 -6 -8 -3 -14 7 -16 12 -3 13 -7 3 -18 -6 -8 -9 -18 -5 -21 4 -4
11 -1 16 7 8 12 10 10 10 -8 0 -13 -4 -20 -10 -17 -6 3 -10 -4 -10 -17 0 -16
3 -19 8 -10 15 22 37 -61 23 -86 -6 -11 -8 -28 -4 -38 5 -13 3 -16 -10 -11 -9
3 -17 2 -17 -3 0 -6 5 -10 10 -10 6 0 10 -9 10 -20 0 -11 -5 -20 -12 -20 -9 0
-9 -3 0 -12 7 -7 12 -20 12 -30 0 -11 7 -32 15 -48 8 -16 27 -75 41 -132 23
-90 25 -114 19 -193 -4 -49 -14 -106 -22 -125 -8 -19 -21 -56 -28 -82 -7 -26
-27 -71 -44 -99 l-32 -50 21 -33 c11 -19 20 -40 20 -49 0 -8 4 -17 10 -19 5
-2 12 -29 16 -60 7 -63 -13 -145 -45 -179 -38 -41 -45 -64 -25 -89 64 -79 93
-102 175 -145 50 -26 92 -45 93 -43 1 1 15 32 30 68 42 97 40 229 -9 523 -2
15 -1 27 3 27 4 -1 33 -24 64 -53 71 -65 209 -144 296 -169 86 -25 241 -34
311 -19 47 10 57 9 79 -6 57 -41 203 -136 290 -189 108 -66 104 -54 52 -191
-30 -80 -50 -104 -50 -64 0 11 -10 32 -23 48 -12 15 -35 47 -50 71 -15 23 -34
42 -42 42 -8 0 -15 6 -15 13 0 22 -41 54 -125 97 -44 22 -84 40 -88 40 -5 0
-41 15 -80 34 -40 19 -98 40 -129 46 -32 6 -60 16 -63 21 -4 5 -17 9 -31 9
-14 0 -23 4 -20 9 5 8 -38 23 -104 36 -19 4 -54 13 -78 21 -49 16 -62 12 -62
-17 0 -11 -7 -34 -16 -51 -9 -17 -18 -54 -20 -82 -3 -28 -7 -67 -11 -86 -3
-19 -5 -39 -4 -44 1 -4 -2 -13 -7 -20 -8 -10 -42 -115 -42 -130 0 -3 18 -4 40
-2 22 2 43 -1 46 -6 3 -5 12 -7 20 -4 8 3 14 1 14 -4 0 -4 14 -11 30 -15 17
-4 30 -12 30 -18 0 -47 105 -99 388 -191 305 -100 611 -163 967 -201 129 -13
550 -17 686 -6 279 23 709 91 709 112 0 4 -20 25 -45 46 -25 20 -47 44 -50 53
-3 8 -21 33 -40 55 -36 41 -78 90 -95 112 -6 7 -10 15 -10 18 0 3 -11 18 -24
33 -13 15 -33 38 -45 52 l-20 25 -39 -22 c-76 -42 -220 -18 -299 51 -56 49
-83 102 -91 180 l-7 61 -65 -3 c-105 -5 -326 66 -296 95 4 4 10 3 14 -3 4 -5
29 -19 57 -30 27 -10 53 -20 57 -22 20 -9 5 16 -14 25 -23 11 -23 11 5 22 16
6 32 9 37 6 5 -3 7 6 5 20 -4 37 12 41 17 5 3 -18 -1 -35 -9 -41 -7 -6 -13
-19 -12 -28 0 -10 3 -8 10 7 5 13 14 20 20 17 11 -7 49 22 49 38 0 5 -9 -1
-21 -14 -19 -23 -20 -23 -10 -2 14 27 14 36 1 28 -5 -3 -10 -2 -10 3 0 5 9 12
20 15 11 3 18 1 14 -4 -3 -5 4 -5 18 0 13 4 29 6 37 3 8 -3 11 0 7 7 -10 15 7
14 23 -1 11 -11 13 -10 8 4 -10 28 8 30 32 4 15 -16 18 -25 10 -28 -9 -3 -9
-9 -1 -24 11 -18 11 -18 12 4 0 12 0 25 -1 28 0 4 5 10 11 14 9 6 7 13 -8 28
-13 13 -17 24 -11 33 6 10 9 11 9 2 0 -7 7 -13 16 -13 8 0 13 -4 10 -9 -3 -5
1 -12 10 -15 22 -9 24 -8 24 9 0 8 -4 15 -10 15 -5 0 -10 7 -10 16 0 8 -4 13
-9 10 -4 -3 -13 6 -19 20 -13 28 -17 32 -66 90 -20 23 -36 46 -36 51 0 5 -11
20 -25 33 -14 13 -25 28 -25 34 0 11 -83 66 -100 66 -5 0 -25 -16 -46 -35 -20
-19 -41 -35 -45 -35 -5 0 -30 -15 -56 -34 -62 -43 -198 -108 -220 -104 -21 4
-61 114 -70 191 -3 31 -9 57 -14 57 -4 0 -13 -26 -19 -57 -6 -32 -15 -71 -21
-88 -34 -104 -63 -399 -44 -448 4 -9 3 -17 -2 -17 -12 0 -137 43 -187 65 -40
17 -55 11 -56 -22 0 -11 -37 -104 -45 -111 -3 -4 -97 45 -160 84 -22 13 -47
27 -55 31 -8 4 -17 9 -20 12 -12 14 -130 91 -140 91 -15 0 -13 4 19 52 28 42
64 118 56 118 -2 0 3 19 12 43 28 77 43 181 42 297 0 82 -3 108 -10 92 -5 -13
-7 -28 -3 -33 3 -5 0 -9 -5 -9 -6 0 -11 11 -11 25 0 16 -6 25 -15 25 -8 0 -15
8 -15 18 0 14 2 15 10 2 5 -8 10 -10 10 -5 0 19 -18 38 -29 31 -6 -4 -11 -2
-11 5 0 6 -8 18 -17 26 -10 8 -12 11 -4 8 9 -5 8 1 -4 19 -10 14 -22 23 -29
19 -6 -4 -5 1 2 10 8 9 11 21 7 27 -4 6 -1 17 5 25 10 12 9 16 -6 22 -11 3
-23 13 -27 20 -5 7 -12 11 -17 8 -4 -3 -6 3 -4 12 6 26 -10 45 -40 46 -14 1
-25 7 -25 12 3 26 -2 46 -10 41 -5 -3 -12 1 -15 10 -3 9 -13 14 -21 11 -9 -4
-12 -1 -8 9 3 7 0 14 -7 14 -7 0 -10 7 -7 14 4 10 1 13 -9 9 -8 -3 -20 0 -28
6 -10 9 -15 8 -20 -4 -3 -8 -12 -15 -20 -15 -11 0 -13 6 -9 18 7 16 6 16 -11
-1 -25 -24 -55 -39 -66 -32 -19 11 -10 22 15 20 29 -4 32 7 8 26 -13 11 -15
11 -9 1 6 -10 -1 -12 -33 -8 -22 2 -46 8 -53 12 -10 6 -10 4 1 -9 9 -11 10
-17 2 -17 -6 0 -11 -7 -11 -16 0 -8 -5 -12 -11 -8 -6 3 -24 -3 -39 -15 -16
-11 -31 -17 -34 -12 -3 5 1 12 10 15 8 3 12 10 9 16 -12 19 -24 10 -30 -24 -5
-26 -11 -33 -25 -29 -18 5 -35 -21 -24 -38 3 -5 -4 -9 -15 -9 -11 0 -23 -5
-26 -10 -11 -18 -23 -11 -18 10 3 11 14 20 24 20 13 0 19 7 19 23 0 13 9 32
20 42 11 10 20 24 20 32 0 7 5 13 11 13 5 0 8 4 5 9 -4 5 -3 11 2 13 11 5 63
110 57 116 -3 3 -6 3 -8 1 -22 -31 -57 -90 -57 -96 -1 -13 -139 -158 -145
-152 -3 4 -7 15 -9 25 -2 11 -9 38 -15 61 -14 52 -25 145 -30 261 0 17 -5 32
-10 32 -11 0 -5 -145 9 -235 23 -143 1 -118 -30 36 -12 57 -19 114 -17 127 3
13 1 40 -4 60 -11 46 -1 102 17 102 10 0 14 -13 14 -41 0 -24 4 -38 10 -34 6
3 10 23 10 44 0 36 2 39 34 45 66 12 171 74 233 136 103 103 153 223 153 365
0 95 -20 179 -60 253 l-28 53 61 51 c34 28 64 55 65 59 3 7 -83 120 -139 183
-4 5 -36 -9 -71 -32 -36 -22 -86 -47 -112 -56 -43 -15 -53 -15 -106 -1 -32 8
-91 15 -131 15 -146 0 -259 -48 -366 -155 -61 -60 -75 -70 -85 -58 -6 8 -28
22 -47 32 -20 10 -59 32 -87 50 -76 48 -330 141 -385 141 -16 0 -78 12 -137
26 -71 17 -159 28 -262 34 -85 6 -167 12 -182 15 -15 2 -30 0 -33 -5z m1695
-121 c19 -10 -134 -12 -170 -2 -22 7 -21 8 15 13 49 7 135 1 155 -11z m-222
-81 c-3 -46 -7 -117 -7 -159 -1 -72 -2 -77 -25 -83 -49 -12 -44 -68 7 -86 26
-8 29 -13 17 -20 -8 -5 -26 -10 -39 -10 -20 0 -23 -4 -18 -27 3 -15 3 -33 0
-40 -7 -17 -18 -2 -64 87 -19 36 -60 91 -92 123 -82 84 -84 89 -45 134 18 21
46 49 61 63 37 33 166 100 192 100 19 0 20 -4 13 -82z m-1447 -78 c6 -41 14
-91 19 -110 5 -19 14 -73 21 -120 6 -47 16 -93 21 -103 16 -31 5 -27 -40 13
-48 42 -213 130 -244 130 -32 0 -32 28 1 93 35 70 79 120 154 178 50 37 52 38
55 17 1 -13 7 -57 13 -98z m1997 -87 c80 -159 73 -352 -18 -492 -66 -102 -147
-168 -255 -207 -46 -17 -65 -20 -66 -11 0 9 -2 9 -6 0 -7 -19 -43 -16 -43 4 0
34 23 150 42 216 l20 67 39 0 40 0 -2 90 c-2 85 0 91 32 142 66 105 166 227
186 228 7 0 21 -17 31 -37z m-2038 -233 c0 -5 -4 -10 -10 -10 -5 0 -10 5 -10
10 0 6 5 10 10 10 6 0 10 -4 10 -10z m1540 -117 c0 -57 8 -73 36 -73 13 0 24
-6 24 -13 0 -7 9 -18 20 -25 44 -27 43 -55 -5 -155 -24 -51 -46 -95 -49 -98
-3 -3 -19 -4 -34 -1 l-29 4 -6 121 c-4 67 -10 132 -13 145 -5 16 -2 22 10 22
13 0 16 13 16 83 1 76 2 80 15 57 8 -14 14 -44 15 -67z m-1566 42 c-4 -8 -8
-15 -10 -15 -2 0 -4 7 -4 15 0 8 4 15 10 15 5 0 7 -7 4 -15z m-147 -67 c21
-29 40 -58 43 -65 3 -6 25 -33 50 -60 25 -26 53 -59 62 -73 10 -14 33 -47 53
-73 l36 -48 -29 15 c-81 42 -161 119 -211 201 -32 53 -66 155 -51 155 4 0 25
-24 47 -52z m293 32 c0 -5 -4 -10 -10 -10 -5 0 -10 5 -10 10 0 6 5 10 10 10 6
0 10 -4 10 -10z m-400 -100 c0 -5 -5 -10 -11 -10 -5 0 -7 5 -4 10 3 6 8 10 11
10 2 0 4 -4 4 -10z m473 -101 c4 -16 3 -18 -9 -8 -16 13 -19 29 -5 29 5 0 11
-9 14 -21z m-23 -60 c0 -6 -4 -7 -10 -4 -5 3 -10 11 -10 16 0 6 5 7 10 4 6 -3
10 -11 10 -16z m190 -111 c0 -4 -12 -8 -28 -8 -32 0 -63 37 -41 50 12 8 69
-26 69 -42z m-360 -78 c0 -5 -2 -10 -4 -10 -3 0 -8 5 -11 10 -3 6 -1 10 4 10
6 0 11 -4 11 -10z m174 -186 c3 -8 2 -12 -4 -9 -6 3 -10 10 -10 16 0 14 7 11
14 -7z m-10 -70 c10 -25 1 -27 -19 -4 -15 17 -16 20 -3 20 9 0 19 -7 22 -16z
m-117 -10 c-3 -3 -12 -4 -19 -1 -8 3 -5 6 6 6 11 1 17 -2 13 -5z m2167 -79
c-4 -8 -8 -15 -10 -15 -2 0 -4 7 -4 15 0 8 4 15 10 15 5 0 7 -7 4 -15z m86
-69 c0 -3 -4 -8 -10 -11 -5 -3 -10 -1 -10 4 0 6 5 11 10 11 6 0 10 -2 10 -4z
m1512 -848 c-7 -7 -12 -8 -12 -2 0 14 12 26 19 19 2 -3 -1 -11 -7 -17z m-32
-1 c0 -2 -9 -12 -20 -22 -19 -17 -20 -17 -20 -1 0 9 5 14 10 11 6 -3 10 -1 10
4 0 6 5 11 10 11 6 0 10 -2 10 -3z m-149 -54 c13 -15 12 -15 -8 -4 -24 12 -29
21 -14 21 5 0 15 -7 22 -17z m-31 -13 c0 -5 -5 -10 -11 -10 -5 0 -7 5 -4 10 3
6 8 10 11 10 2 0 4 -4 4 -10z m-1625 -60 c3 -5 2 -10 -4 -10 -5 0 -13 5 -16
10 -3 6 -2 10 4 10 5 0 13 -4 16 -10z m72 -56 c-3 -3 -12 -4 -19 -1 -8 3 -5 6
6 6 11 1 17 -2 13 -5z m220 -86 c-3 -8 -6 -5 -6 6 -1 11 2 17 5 13 3 -3 4 -12
1 -19z m-524 -208 c-5 -19 -23 -29 -23 -12 0 7 20 32 26 32 1 0 0 -9 -3 -20z
m422 -10 c3 -5 -1 -10 -10 -10 -9 0 -13 5 -10 10 3 6 8 10 10 10 2 0 7 -4 10
-10z m490 -40 c3 -5 1 -10 -4 -10 -6 0 -11 5 -11 10 0 6 2 10 4 10 3 0 8 -4
11 -10z m-288 -52 c-3 -8 -6 -5 -6 6 -1 11 2 17 5 13 3 -3 4 -12 1 -19z m40 6
c-3 -3 -12 -4 -19 -1 -8 3 -5 6 6 6 11 1 17 -2 13 -5z m1698 -74 c3 -5 1 -10
-4 -10 -6 0 -11 5 -11 10 0 6 2 10 4 10 3 0 8 -4 11 -10z m315 -10 c0 -5 -2
-10 -4 -10 -3 0 -8 5 -11 10 -3 6 -1 10 4 10 6 0 11 -4 11 -10z m-1896 -31
c-6 -11 -24 -2 -24 11 0 5 7 7 15 4 8 -4 12 -10 9 -15z m1936 -39 c0 -5 -5
-10 -11 -10 -5 0 -7 5 -4 10 3 6 8 10 11 10 2 0 4 -4 4 -10z m-1812 -18 c-10
-2 -18 -8 -18 -14 0 -6 -2 -9 -5 -6 -12 12 7 37 23 30 16 -6 15 -7 0 -10z
m1422 -1 c0 -6 -4 -13 -10 -16 -5 -3 -10 1 -10 9 0 9 5 16 10 16 6 0 10 -4 10
-9z m-1555 -49 c-3 -3 -11 0 -18 7 -9 10 -8 11 6 5 10 -3 15 -9 12 -12z"/>
<path d="M2532 2360 c0 -14 2 -19 5 -12 2 6 2 18 0 25 -3 6 -5 1 -5 -13z"/>
<path d="M3637 3295 c-221 -61 -392 -276 -388 -489 1 -42 -3 -74 -11 -84 -8
-9 -8 -13 -2 -9 13 8 29 -38 19 -53 -4 -6 -1 -10 5 -10 6 0 8 -5 5 -10 -4 -6
-10 -8 -15 -5 -5 3 -12 1 -15 -5 -4 -6 -3 -10 2 -9 27 5 40 -6 57 -49 51 -126
189 -243 339 -287 31 -9 57 -21 57 -26 0 -5 5 -9 11 -9 5 0 7 5 4 11 -5 7 18
10 72 9 43 -1 85 0 93 3 15 5 63 16 90 20 8 1 20 8 26 16 6 8 16 11 21 8 6 -4
14 0 17 9 4 9 9 14 12 11 4 -3 18 5 32 19 18 15 33 22 46 18 14 -5 18 -2 13 9
-3 8 11 34 35 63 88 107 128 214 128 344 0 146 -48 260 -154 366 -108 108
-221 154 -371 153 -44 0 -102 -7 -128 -14z m276 -32 c170 -46 318 -215 347
-397 23 -142 -26 -305 -121 -404 -25 -27 -34 -31 -41 -20 -8 10 -8 9 -4 -4 4
-12 -3 -24 -22 -35 -15 -10 -33 -24 -41 -31 -10 -10 -16 -10 -30 0 -9 7 -13 9
-9 4 8 -9 -16 -37 -35 -40 -6 -1 -22 -8 -35 -15 -12 -6 -32 -9 -44 -5 -12 4
-18 2 -14 -4 14 -23 -200 -18 -238 5 -6 4 -20 9 -31 10 -58 10 -192 120 -246
204 -56 87 -90 247 -56 263 10 5 10 7 0 12 -31 14 3 164 56 243 132 198 337
275 564 214z"/>
<path d="M3695 2934 c-47 -24 -73 -53 -91 -101 -10 -25 -23 -43 -32 -43 -14 0
-14 -1 0 -12 9 -7 19 -31 23 -53 12 -71 135 -168 135 -106 0 11 -8 22 -17 24
-15 4 -15 5 2 6 14 1 21 9 23 26 2 22 -7 30 -30 26 -4 0 -16 11 -28 26 -16 20
-18 28 -8 35 10 6 10 8 1 8 -15 0 -17 36 -3 45 6 3 10 18 10 31 0 23 3 25 28
20 39 -8 114 -9 139 -1 20 6 22 2 28 -48 10 -75 5 -89 -34 -109 -29 -14 -36
-15 -45 -4 -6 8 -24 16 -41 20 -28 6 -29 5 -11 -9 11 -8 26 -15 33 -15 17 0
33 -33 33 -69 0 -25 4 -31 21 -31 47 0 104 66 123 143 15 64 -42 165 -111 193
-43 19 -111 17 -148 -2z"/>
<path d="M3380 2851 c0 -7 9 -24 20 -38 13 -17 20 -20 20 -11 0 8 -9 25 -20
38 -11 13 -20 17 -20 11z"/>
<path d="M3452 2819 c-1 -35 10 -31 15 6 2 14 0 25 -5 25 -5 0 -9 -14 -10 -31z"/>
<path d="M3530 2789 c0 -5 5 -7 10 -4 6 3 10 8 10 11 0 2 -4 4 -10 4 -5 0 -10
-5 -10 -11z"/>
<path d="M3480 2715 c7 -9 15 -13 17 -11 7 7 -7 26 -19 26 -6 0 -6 -6 2 -15z"/>
<path d="M3378 2690 c10 -12 18 -16 21 -9 2 6 -3 15 -10 20 -24 15 -29 10 -11
-11z"/>
<path d="M3336 2673 c-6 -14 -5 -15 5 -6 7 7 10 15 7 18 -3 3 -9 -2 -12 -12z"/>
<path d="M3540 2670 c0 -6 -4 -8 -10 -5 -5 3 -10 1 -10 -4 0 -13 27 -14 35 -2
3 5 1 12 -5 16 -5 3 -10 1 -10 -5z"/>
<path d="M3587 2663 c-4 -3 -7 -11 -7 -17 0 -6 5 -5 12 2 6 6 9 14 7 17 -3 3
-9 2 -12 -2z"/>
<path d="M3395 2630 c3 -5 8 -10 11 -10 2 0 4 5 4 10 0 6 -5 10 -11 10 -5 0
-7 -4 -4 -10z"/>
<path d="M3578 2608 c7 -7 12 -20 12 -30 0 -19 15 -24 24 -9 6 9 -26 51 -40
51 -4 0 -3 -5 4 -12z"/>
<path d="M3625 2610 c-3 -5 -1 -10 4 -10 6 0 11 5 11 10 0 6 -2 10 -4 10 -3 0
-8 -4 -11 -10z"/>
<path d="M3785 2610 c-3 -5 -1 -10 4 -10 6 0 11 5 11 10 0 6 -2 10 -4 10 -3 0
-8 -4 -11 -10z"/>
<path d="M3971 2578 c-13 -21 -13 -22 2 -10 9 8 21 11 26 7 7 -3 8 0 5 9 -8
22 -17 20 -33 -6z"/>
<path d="M3435 2570 c3 -5 8 -10 11 -10 2 0 4 5 4 10 0 6 -5 10 -11 10 -5 0
-7 -4 -4 -10z"/>
<path d="M3483 2551 c8 -23 13 -28 15 -16 2 10 -3 25 -12 33 -14 15 -15 13 -3
-17z"/>
<path d="M3678 2563 c7 -3 16 -2 19 1 4 3 -2 6 -13 5 -11 0 -14 -3 -6 -6z"/>
<path d="M3908 2553 c7 -3 16 -2 19 1 4 3 -2 6 -13 5 -11 0 -14 -3 -6 -6z"/>
<path d="M3433 2525 c0 -14 3 -25 8 -25 4 0 6 10 4 21 -6 32 -12 34 -12 4z"/>
<path d="M4020 2542 c0 -5 7 -15 15 -22 8 -7 15 -8 15 -2 0 5 -7 15 -15 22 -8
7 -15 8 -15 2z"/>
<path d="M3660 2503 c0 -10 11 -28 24 -40 16 -16 23 -18 23 -8 0 8 -8 17 -18
20 -10 3 -16 12 -13 20 3 7 1 16 -5 20 -6 3 -11 -2 -11 -12z"/>
<path d="M3907 2485 c-4 -8 -3 -16 1 -19 4 -3 9 4 9 15 2 23 -3 25 -10 4z"/>
<path d="M3545 2480 c3 -5 11 -10 16 -10 6 0 7 5 4 10 -3 6 -11 10 -16 10 -6
0 -7 -4 -4 -10z"/>
<path d="M3765 2440 c3 -5 8 -10 11 -10 2 0 4 5 4 10 0 6 -5 10 -11 10 -5 0
-7 -4 -4 -10z"/>
<path d="M3730 2420 c-9 -6 -10 -10 -3 -10 6 0 15 5 18 10 8 12 4 12 -15 0z"/>
<path d="M3627 2389 c7 -9 10 -19 6 -22 -3 -4 -1 -7 5 -7 17 0 15 16 -5 31
-16 12 -17 12 -6 -2z"/>
<path d="M3785 2380 c-3 -5 -1 -10 4 -10 6 0 11 5 11 10 0 6 -2 10 -4 10 -3 0
-8 -4 -11 -10z"/>
<path d="M3793 2343 c-15 -5 -17 -23 -4 -23 5 0 11 7 15 15 3 8 4 15 3 14 -1
0 -8 -3 -14 -6z"/>
<path d="M3660 2330 c0 -5 5 -10 11 -10 5 0 7 5 4 10 -3 6 -8 10 -11 10 -2 0
-4 -4 -4 -10z"/>
<path d="M7653 3296 c-90 -22 -164 -65 -239 -140 -116 -117 -160 -232 -152
-396 7 -125 44 -213 139 -331 l21 -26 -21 -68 c-12 -37 -21 -83 -21 -101 0
-29 -13 -76 -45 -172 -4 -9 -23 -3 -70 24 -37 20 -68 34 -70 32 -3 -2 -6 -67
-8 -144 -3 -113 -9 -159 -32 -246 l-28 -107 128 -123 c70 -68 134 -122 141
-122 8 1 14 -6 14 -15 0 -20 97 -131 115 -131 11 0 218 214 320 330 97 111
277 352 359 482 l36 57 -40 34 c-22 19 -92 60 -155 92 l-115 58 70 34 c85 41
182 129 229 207 89 149 95 342 14 505 -36 73 -152 189 -225 225 -112 55 -247
70 -365 42z m267 -33 c127 -35 247 -137 306 -259 92 -191 55 -408 -94 -559
-61 -61 -113 -96 -182 -120 -38 -14 -55 -14 -115 -4 -38 7 -90 22 -115 35 -25
12 -61 27 -80 32 -64 18 -135 35 -167 40 -72 10 -163 154 -181 288 -28 201 57
382 231 495 117 76 249 93 397 52z m-530 -1840 c0 -5 -5 -15 -10 -23 -8 -12
-10 -11 -10 8 0 12 5 22 10 22 6 0 10 -3 10 -7z"/>
<path d="M7570 2905 l0 -45 210 0 210 0 0 45 0 45 -210 0 -210 0 0 -45z m390
0 c0 -11 -11 -15 -40 -15 -29 0 -40 4 -40 15 0 11 11 15 40 15 29 0 40 -4 40
-15z"/>
<path d="M7570 2785 l0 -45 208 0 c115 0 211 2 213 4 3 3 3 23 1 45 l-4 41
-209 0 -209 0 0 -45z m390 0 c0 -12 -19 -15 -115 -15 -96 0 -115 3 -115 15 0
12 19 15 115 15 96 0 115 -3 115 -15z"/>
<path d="M7570 2665 l0 -45 213 2 212 3 0 40 0 40 -212 3 -213 2 0 -45z m390
0 c0 -12 -14 -15 -70 -15 -56 0 -70 3 -70 15 0 12 14 15 70 15 56 0 70 -3 70
-15z"/>
<path d="M8676 3063 c-34 -51 -65 -144 -71 -212 -5 -55 -4 -54 29 44 18 55 43
122 56 148 27 61 20 71 -14 20z"/>
<path d="M3220 2896 c0 -8 4 -17 9 -20 5 -4 7 3 4 14 -6 23 -13 26 -13 6z"/>
<path d="M3180 2695 c0 -8 5 -15 10 -15 6 0 10 7 10 15 0 8 -4 15 -10 15 -5 0
-10 -7 -10 -15z"/>
<path d="M3220 2459 c0 -5 5 -7 10 -4 6 3 10 8 10 11 0 2 -4 4 -10 4 -5 0 -10
-5 -10 -11z"/>
<path d="M3110 2413 c0 -5 5 -15 10 -23 8 -12 10 -11 10 8 0 12 -4 22 -10 22
-5 0 -10 -3 -10 -7z"/>
<path d="M3137 2373 c-4 -3 -7 -11 -7 -17 0 -6 5 -5 12 2 6 6 9 14 7 17 -3 3
-9 2 -12 -2z"/>
<path d="M3186 2358 c3 -5 10 -6 15 -3 13 9 11 12 -6 12 -8 0 -12 -4 -9 -9z"/>
<path d="M4093 2343 c-1 -19 1 -22 8 -12 11 17 12 39 2 39 -5 0 -9 -12 -10
-27z"/>
<path d="M3143 2335 c-3 -9 -3 -18 -1 -21 3 -3 8 4 11 16 6 23 -1 27 -10 5z"/>
<path d="M4140 2336 c0 -9 5 -16 10 -16 6 0 10 4 10 9 0 6 -4 13 -10 16 -5 3
-10 -1 -10 -9z"/>
<path d="M3265 2320 c-3 -6 1 -7 9 -4 18 7 21 14 7 14 -6 0 -13 -4 -16 -10z"/>
<path d="M4116 2307 c3 -10 9 -15 12 -12 3 3 0 11 -7 18 -10 9 -11 8 -5 -6z"/>
<path d="M3170 2280 c0 -5 5 -10 11 -10 5 0 7 5 4 10 -3 6 -8 10 -11 10 -2 0
-4 -4 -4 -10z"/>
<path d="M4165 2280 c-3 -5 1 -10 10 -10 9 0 13 5 10 10 -3 6 -8 10 -10 10 -2
0 -7 -4 -10 -10z"/>
<path d="M3350 2259 c0 -5 5 -7 10 -4 6 3 10 8 10 11 0 2 -4 4 -10 4 -5 0 -10
-5 -10 -11z"/>
<path d="M3726 2234 c-3 -8 1 -14 9 -14 20 0 28 17 11 23 -8 3 -17 -1 -20 -9z"/>
<path d="M3867 2235 c3 -8 9 -12 14 -9 12 7 11 11 -5 17 -10 4 -13 1 -9 -8z"/>
<path d="M4187 2227 c-3 -8 -1 -20 4 -28 6 -10 9 -7 9 14 0 29 -5 35 -13 14z"/>
<path d="M3110 2216 c0 -2 7 -7 16 -10 8 -3 12 -2 9 4 -6 10 -25 14 -25 6z"/>
<path d="M3760 2205 c0 -16 16 -20 24 -6 3 5 -1 11 -9 15 -9 3 -15 0 -15 -9z"/>
<path d="M3894 2205 c3 -21 16 -31 16 -12 0 9 -4 18 -9 21 -5 4 -8 -1 -7 -9z"/>
<path d="M2600 2175 c-7 -9 -11 -17 -9 -20 3 -2 10 5 17 15 14 24 10 26 -8 5z"/>
<path d="M3190 2179 c0 -5 5 -7 10 -4 6 3 10 8 10 11 0 2 -4 4 -10 4 -5 0 -10
-5 -10 -11z"/>
<path d="M4060 2179 c0 -5 13 -8 30 -7 34 3 31 10 -5 14 -14 1 -25 -2 -25 -7z"/>
<path d="M3126 2167 c3 -10 9 -15 12 -12 3 3 0 11 -7 18 -10 9 -11 8 -5 -6z"/>
<path d="M3947 2155 c-4 -8 -3 -16 1 -19 4 -3 9 4 9 15 2 23 -3 25 -10 4z"/>
<path d="M4192 2129 c-10 -15 -10 -19 -1 -14 9 6 10 1 5 -19 -4 -15 -2 -26 4
-26 5 0 10 18 10 40 0 22 -1 40 -3 40 -1 0 -8 -9 -15 -21z"/>
<path d="M3847 2099 c-4 -16 -3 -18 9 -8 7 6 11 15 8 20 -8 13 -11 11 -17 -12z"/>
<path d="M6605 2063 c-3 -27 -15 -85 -26 -129 -25 -108 -39 -456 -19 -503 11
-27 32 -44 29 -23 -5 27 4 54 19 59 9 3 29 15 44 25 15 10 30 18 35 17 20 -3
34 2 28 11 -3 5 4 11 17 14 39 7 68 5 68 -4 0 -6 12 -5 27 1 15 5 39 7 53 3
14 -4 28 -7 33 -6 4 1 7 -2 7 -8 0 -5 -6 -10 -12 -10 -7 0 0 -7 17 -16 28 -15
31 -14 47 8 10 13 23 28 28 35 18 22 60 105 60 120 0 13 -427 453 -440 453 -4
0 -11 -21 -15 -47z m355 -543 c0 -5 -2 -10 -4 -10 -3 0 -8 5 -11 10 -3 6 -1
10 4 10 6 0 11 -4 11 -10z"/>
<path d="M3210 2090 c0 -5 5 -10 10 -10 6 0 10 5 10 10 0 6 -4 10 -10 10 -5 0
-10 -4 -10 -10z"/>
<path d="M3860 2072 c0 -12 19 -26 26 -19 2 2 -2 10 -11 17 -9 8 -15 8 -15 2z"/>
<path d="M3196 2057 c3 -10 9 -15 12 -12 3 3 0 11 -7 18 -10 9 -11 8 -5 -6z"/>
<path d="M3240 2051 c0 -5 5 -13 10 -16 6 -3 10 -2 10 4 0 5 -4 13 -10 16 -5
3 -10 2 -10 -4z"/>
<path d="M4020 2042 c0 -4 9 -13 19 -19 16 -10 18 -9 14 8 -5 18 -33 28 -33
11z"/>
<path d="M3901 2018 c-8 -13 -8 -18 -1 -13 6 4 20 -1 31 -11 24 -22 25 -4 1
24 l-18 21 -13 -21z"/>
<path d="M3736 2008 c3 -5 10 -6 15 -3 13 9 11 12 -6 12 -8 0 -12 -4 -9 -9z"/>
<path d="M4197 1999 c7 -7 15 -10 18 -7 3 3 -2 9 -12 12 -14 6 -15 5 -6 -5z"/>
<path d="M2237 1993 c-11 -11 -8 -20 8 -20 8 0 15 6 15 14 0 14 -12 17 -23 6z"/>
<path d="M4086 1981 c-4 -7 -5 -15 -2 -18 9 -9 19 4 14 18 -4 11 -6 11 -12 0z"/>
<path d="M3520 1959 c0 -5 5 -7 10 -4 6 3 10 8 10 11 0 2 -4 4 -10 4 -5 0 -10
-5 -10 -11z"/>
<path d="M3618 1913 c7 -3 16 -2 19 1 4 3 -2 6 -13 5 -11 0 -14 -3 -6 -6z"/>
<path d="M4120 1909 c0 -5 5 -7 10 -4 6 3 10 8 10 11 0 2 -4 4 -10 4 -5 0 -10
-5 -10 -11z"/>
<path d="M4165 1910 c-3 -5 -2 -10 4 -10 5 0 13 5 16 10 3 6 2 10 -4 10 -5 0
-13 -4 -16 -10z"/>
<path d="M4202 1890 c0 -14 2 -19 5 -12 2 6 2 18 0 25 -3 6 -5 1 -5 -13z"/>
<path d="M3336 1877 c3 -10 9 -15 12 -12 3 3 0 11 -7 18 -10 9 -11 8 -5 -6z"/>
<path d="M3546 1882 c-3 -5 1 -9 9 -9 8 0 12 4 9 9 -3 4 -7 8 -9 8 -2 0 -6 -4
-9 -8z"/>
<path d="M3697 1883 c-10 -9 -9 -23 1 -23 5 0 9 7 9 15 0 17 -1 18 -10 8z"/>
<path d="M4140 1881 c0 -5 7 -14 15 -21 13 -11 18 -11 28 -1 9 10 8 12 -8 9
-12 -2 -19 2 -17 10 1 6 -2 12 -8 12 -5 0 -10 -4 -10 -9z"/>
<path d="M4032 1858 c5 -15 28 -23 28 -10 0 5 -7 13 -16 16 -10 4 -14 1 -12
-6z"/>
<path d="M1127 1843 c-32 -54 -54 -100 -73 -157 -28 -82 -32 -73 76 -191 189
-206 378 -385 548 -518 54 -42 62 -46 62 -28 0 26 39 111 51 111 21 0 6 38
-36 91 -25 32 -45 60 -45 64 0 3 -55 75 -122 159 -68 85 -157 197 -198 251
-118 152 -130 165 -191 196 -64 32 -66 32 -72 22z"/>
<path d="M4187 1836 c-3 -8 1 -20 9 -26 12 -10 14 -8 14 14 0 28 -14 35 -23
12z"/>
<path d="M3995 1830 c4 -6 11 -8 16 -5 14 9 11 15 -7 15 -8 0 -12 -5 -9 -10z"/>
<path d="M4085 1790 c-11 -12 -13 -20 -6 -20 7 0 9 -5 5 -12 -4 -7 -3 -8 5 -4
6 4 8 12 5 18 -4 6 0 14 7 19 7 4 11 10 8 14 -3 3 -14 -4 -24 -15z"/>
<path d="M3420 1779 c0 -5 5 -7 10 -4 6 3 10 8 10 11 0 2 -4 4 -10 4 -5 0 -10
-5 -10 -11z"/>
<path d="M3690 1780 c0 -5 5 -10 10 -10 6 0 10 5 10 10 0 6 -4 10 -10 10 -5 0
-10 -4 -10 -10z"/>
<path d="M3241 1754 c0 -11 3 -14 6 -6 3 7 2 16 -1 19 -3 4 -6 -2 -5 -13z"/>
<path d="M3936 1732 c-3 -5 1 -9 9 -9 8 0 12 4 9 9 -3 4 -7 8 -9 8 -2 0 -6 -4
-9 -8z"/>
<path d="M4108 1719 c-27 -29 -21 -41 7 -15 14 13 25 26 25 30 0 11 -15 5 -32
-15z"/>
<path d="M2229 1683 c-1 -21 -1 -54 0 -75 2 -30 -1 -37 -21 -43 -20 -7 -73
-40 -88 -55 -3 -3 -26 -16 -52 -29 -27 -13 -48 -28 -48 -33 0 -4 -5 -8 -11 -8
-10 0 -66 -42 -116 -85 -6 -5 -39 -30 -72 -54 -34 -24 -61 -48 -61 -53 0 -5
16 -29 35 -52 19 -24 35 -48 35 -55 0 -16 32 -14 79 7 56 26 152 22 211 -7 43
-20 46 -21 58 -4 7 10 19 26 27 36 8 9 15 20 15 23 0 3 9 25 20 49 30 67 53
216 45 299 -12 131 -53 230 -56 139z"/>
<path d="M3610 1710 c0 -5 5 -10 10 -10 6 0 10 5 10 10 0 6 -4 10 -10 10 -5 0
-10 -4 -10 -10z"/>
<path d="M3970 1710 c0 -5 5 -10 10 -10 6 0 10 5 10 10 0 6 -4 10 -10 10 -5 0
-10 -4 -10 -10z"/>
<path d="M1412 1680 c7 -11 16 -20 20 -20 5 0 8 -5 8 -10 0 -6 4 -16 10 -23
35 -43 71 -89 136 -174 41 -53 74 -90 74 -83 0 32 -72 142 -137 209 -40 41
-73 77 -73 81 0 4 -11 15 -25 24 -25 17 -25 16 -13 -4z"/>
<path d="M4022 1681 c-11 -7 -10 -9 3 -14 9 -4 14 -3 10 2 -3 5 1 12 7 14 7 3
9 6 3 6 -5 0 -16 -3 -23 -8z"/>
<path d="M3846 1667 c3 -10 9 -15 12 -12 3 3 0 11 -7 18 -10 9 -11 8 -5 -6z"/>
<path d="M4060 1670 c0 -5 5 -10 11 -10 5 0 7 5 4 10 -3 6 -8 10 -11 10 -2 0
-4 -4 -4 -10z"/>
<path d="M3413 1619 c9 -5 17 -16 17 -23 0 -8 7 -19 15 -26 10 -9 15 -9 15 -1
0 6 -4 11 -10 11 -5 0 -10 9 -10 19 0 10 -7 22 -16 25 -24 9 -31 7 -11 -5z"/>
<path d="M3507 1614 c-3 -3 -3 -12 0 -20 4 -11 9 -12 19 -3 8 6 11 15 8 20 -6
10 -18 12 -27 3z"/>
<path d="M3670 1609 c0 -5 5 -7 10 -4 6 3 10 8 10 11 0 2 -4 4 -10 4 -5 0 -10
-5 -10 -11z"/>
<path d="M3636 1582 c-3 -5 1 -9 9 -9 8 0 12 4 9 9 -3 4 -7 8 -9 8 -2 0 -6 -4
-9 -8z"/>
<path d="M4023 1564 c-3 -8 -1 -20 6 -27 8 -8 11 -4 11 16 0 30 -7 35 -17 11z"/>
<path d="M7100 1566 c0 -16 18 -31 27 -22 3 3 -2 12 -11 21 -14 14 -16 14 -16
1z"/>
<path d="M3965 1530 c-3 -5 -2 -10 4 -10 5 0 13 5 16 10 3 6 2 10 -4 10 -5 0
-13 -4 -16 -10z"/>
<path d="M7165 1530 c-3 -5 -2 -10 4 -10 5 0 13 5 16 10 3 6 2 10 -4 10 -5 0
-13 -4 -16 -10z"/>
<path d="M3565 1510 c3 -5 8 -10 11 -10 2 0 4 5 4 10 0 6 -5 10 -11 10 -5 0
-7 -4 -4 -10z"/>
<path d="M3660 1516 c0 -2 7 -7 16 -10 8 -3 12 -2 9 4 -6 10 -25 14 -25 6z"/>
<path d="M7080 1509 c0 -5 5 -7 10 -4 6 3 10 8 10 11 0 2 -4 4 -10 4 -5 0 -10
-5 -10 -11z"/>
<path d="M3710 1499 c0 -5 5 -7 10 -4 6 3 10 8 10 11 0 2 -4 4 -10 4 -5 0 -10
-5 -10 -11z"/>
<path d="M3620 1489 c0 -5 5 -7 10 -4 6 3 10 8 10 11 0 2 -4 4 -10 4 -5 0 -10
-5 -10 -11z"/>
<path d="M7060 1471 c0 -12 5 -21 10 -21 6 0 10 6 10 14 0 8 -4 18 -10 21 -5
3 -10 -3 -10 -14z"/>
<path d="M3658 1473 c6 -2 18 -2 25 0 6 3 1 5 -13 5 -14 0 -19 -2 -12 -5z"/>
<path d="M3710 1449 c0 -5 5 -7 10 -4 6 3 10 8 10 11 0 2 -4 4 -10 4 -5 0 -10
-5 -10 -11z"/>
<path d="M6488 1443 c7 -3 16 -2 19 1 4 3 -2 6 -13 5 -11 0 -14 -3 -6 -6z"/>
<path d="M3898 1433 c6 -2 18 -2 25 0 6 3 1 5 -13 5 -14 0 -19 -2 -12 -5z"/>
<path d="M6945 910 c3 -5 11 -10 16 -10 6 0 7 5 4 10 -3 6 -11 10 -16 10 -6 0
-7 -4 -4 -10z"/>
<path d="M4650 879 c0 -5 5 -7 10 -4 6 3 10 8 10 11 0 2 -4 4 -10 4 -5 0 -10
-5 -10 -11z"/>
<path d="M4660 835 c0 -8 7 -15 15 -15 8 0 15 7 15 15 0 8 -7 15 -15 15 -8 0
-15 -7 -15 -15z"/>
<path d="M4510 831 c0 -5 7 -11 14 -14 10 -4 13 -1 9 9 -6 15 -23 19 -23 5z"/>
<path d="M4590 829 c0 -5 5 -7 10 -4 6 3 10 8 10 11 0 2 -4 4 -10 4 -5 0 -10
-5 -10 -11z"/>
<path d="M2065 720 c3 -5 8 -10 11 -10 2 0 4 5 4 10 0 6 -5 10 -11 10 -5 0 -7
-4 -4 -10z"/>
<path d="M2085 690 c3 -5 8 -10 11 -10 2 0 4 5 4 10 0 6 -5 10 -11 10 -5 0 -7
-4 -4 -10z"/>
</g>
</svg>
